<svg width="100" height="110" viewBox="0 0 100 110" fill="none" xmlns="http://www.w3.org/2000/svg">
<rect x="34" y="20" width="32" height="32" rx="6" fill="#3CAC5C"/>
<path d="M43.7191 25.9166C43.7191 24.8121 44.6146 23.9166 45.7191 23.9166H54.1925C55.297 23.9166 56.1925 24.8121 56.1925 25.9166V32.8308C56.1925 33.9354 55.297 34.8308 54.1925 34.8308H45.7191C44.6146 34.8308 43.7191 33.9354 43.7191 32.8308V25.9166ZM43.7191 39.1691C43.7191 38.0646 44.6146 37.1691 45.7191 37.1691H54.1925C55.297 37.1691 56.1925 38.0646 56.1925 39.1691V46.0833C56.1925 47.1879 55.297 48.0833 54.1925 48.0833H45.7191C44.6146 48.0833 43.7191 47.1879 43.7191 46.0833V39.1691ZM58.9208 31.9325C58.9208 31.3802 59.3685 30.9325 59.9208 30.9325H61.0391C61.5914 30.9325 62.0391 31.3802 62.0391 31.9325V33.0508C62.0391 33.6031 61.5914 34.0508 61.0391 34.0508H59.9208C59.3685 34.0508 58.9208 33.6031 58.9208 33.0508V31.9325ZM58.9208 25.6958C58.9208 25.1435 59.3685 24.6958 59.9208 24.6958H61.0391C61.5914 24.6958 62.0391 25.1435 62.0391 25.6958V26.8141C62.0391 27.3664 61.5914 27.8141 61.0391 27.8141H59.9208C59.3685 27.8141 58.9208 27.3664 58.9208 26.8141V25.6958ZM58.9208 38.9491C58.9208 38.3968 59.3685 37.9491 59.9208 37.9491H61.0391C61.5914 37.9491 62.0391 38.3968 62.0391 38.9491V40.0675C62.0391 40.6197 61.5914 41.0675 61.0391 41.0675H59.9208C59.3685 41.0675 58.9208 40.6197 58.9208 40.0675V38.9491ZM58.9208 45.1858C58.9208 44.6335 59.3685 44.1858 59.9208 44.1858H61.0391C61.5914 44.1858 62.0391 44.6335 62.0391 45.1858V46.3041C62.0391 46.8564 61.5914 47.3041 61.0391 47.3041H59.9208C59.3685 47.3041 58.9208 46.8564 58.9208 46.3041V45.1858ZM37.9608 31.9325C37.9608 31.3802 38.4085 30.9325 38.9608 30.9325H40.0791C40.6314 30.9325 41.0791 31.3802 41.0791 31.9325V33.0508C41.0791 33.6031 40.6314 34.0508 40.0791 34.0508H38.9608C38.4085 34.0508 37.9608 33.6031 37.9608 33.0508V31.9325ZM37.9608 25.6958C37.9608 25.1435 38.4085 24.6958 38.9608 24.6958H40.0791C40.6314 24.6958 41.0791 25.1435 41.0791 25.6958V26.8141C41.0791 27.3664 40.6314 27.8141 40.0791 27.8141H38.9608C38.4085 27.8141 37.9608 27.3664 37.9608 26.8141V25.6958ZM37.9608 38.9491C37.9608 38.3968 38.4085 37.9491 38.9608 37.9491H40.0791C40.6314 37.9491 41.0791 38.3968 41.0791 38.9491V40.0675C41.0791 40.6197 40.6314 41.0675 40.0791 41.0675H38.9608C38.4085 41.0675 37.9608 40.6197 37.9608 40.0675V38.9491ZM37.9608 45.1858C37.9608 44.6335 38.4085 44.1858 38.9608 44.1858H40.0791C40.6314 44.1858 41.0791 44.6335 41.0791 45.1858V46.3041C41.0791 46.8564 40.6314 47.3041 40.0791 47.3041H38.9608C38.4085 47.3041 37.9608 46.8564 37.9608 46.3041V45.1858Z" fill="#E7F5EA"/>
<path d="M25.2082 63.159C26.1572 63.159 26.9632 63.523 27.5092 64.121H30.3042V62.509H31.5782V69.295H30.3042V67.761H27.4962C26.9502 68.346 26.1442 68.697 25.2082 68.697C23.4922 68.697 22.2182 67.553 22.2182 65.941C22.2182 64.316 23.4922 63.159 25.2082 63.159ZM25.2082 64.251C24.1812 64.251 23.4272 64.914 23.4272 65.941C23.4272 66.942 24.1812 67.605 25.2082 67.605C26.2352 67.605 26.9632 66.942 26.9632 65.941C26.9632 64.914 26.2352 64.251 25.2082 64.251ZM27.7562 69.542C30.1352 69.542 31.6172 70.374 31.6172 71.778C31.6172 73.182 30.1352 74.001 27.7562 74.001C25.3642 74.001 23.8692 73.182 23.8692 71.778C23.8692 70.374 25.3642 69.542 27.7562 69.542ZM27.7562 70.543C26.0922 70.543 25.1302 70.985 25.1302 71.778C25.1302 72.558 26.0922 73.013 27.7562 73.013C29.4072 73.013 30.3562 72.558 30.3562 71.778C30.3562 70.985 29.4072 70.543 27.7562 70.543ZM28.0812 65.148C28.1462 65.395 28.1852 65.668 28.1852 65.941C28.1852 66.214 28.1462 66.474 28.0812 66.721H30.3042V65.148H28.0812ZM36.1285 63.12H37.3895V64.342C37.3895 65.837 38.4035 67.228 40.1065 67.8L39.4435 68.788C38.2085 68.359 37.2855 67.475 36.7785 66.37C36.2975 67.631 35.3355 68.632 34.0095 69.126L33.3205 68.112C35.1275 67.475 36.1285 65.915 36.1285 64.238V63.12ZM41.1205 62.509H42.3945V65.369H44.0325V66.435H42.3945V69.425H41.1205V62.509ZM38.7025 69.724C41.0685 69.724 42.5245 70.504 42.5245 71.856C42.5245 73.208 41.0685 74.001 38.7025 74.001C36.3365 74.001 34.8805 73.208 34.8805 71.856C34.8805 70.504 36.3365 69.724 38.7025 69.724ZM38.7025 70.712C37.0905 70.712 36.1285 71.128 36.1285 71.856C36.1285 72.597 37.0905 73.013 38.7025 73.013C40.3145 73.013 41.2635 72.597 41.2635 71.856C41.2635 71.128 40.3145 70.712 38.7025 70.712ZM45.2288 63.51H50.5848V68.931H45.2288V63.51ZM49.3238 64.524H46.4768V67.891H49.3238V64.524ZM52.4958 62.496H53.7698V65.928H55.3948V66.994H53.7698V70.92H52.4958V62.496ZM46.5158 70.101H47.7898V72.74H54.2508V73.78H46.5158V70.101ZM56.1622 67.189H66.5492V68.216H56.1622V67.189ZM57.5012 62.821H65.1972V63.861H58.7752V65.369H65.3272V66.37H57.5012V62.821ZM57.3712 69.074H65.2362V71.908H58.6582V72.896H65.5612V73.897H57.4102V70.985H63.9752V70.062H57.3712V69.074ZM75.7145 62.509H76.9885V74.014H75.7145V62.509ZM73.5955 63.718C73.5955 67.124 72.2175 70.023 68.2655 71.947L67.6025 70.933C70.6315 69.477 72.0485 67.436 72.2825 64.758H68.1485V63.718H73.5955Z" fill="#3CAC5C"/>
</svg>
