<svg width="100" height="110" viewBox="0 0 100 110" fill="none" xmlns="http://www.w3.org/2000/svg">
<g clip-path="url(#clip0_9_144)">
<path d="M100 0H0V110H100V0Z" fill="#FCE5EE"/>
<path d="M50 18.5C40.335 18.5 32.5 26.335 32.5 36C32.5 45.665 40.335 53.5 50 53.5C59.665 53.5 67.5 45.665 67.5 36C67.5 26.335 59.665 18.5 50 18.5Z" fill="#ED4D85"/>
<path d="M57.1334 28.8664C57.3678 29.1008 57.4994 29.4187 57.4994 29.7502C57.4994 30.0816 57.3678 30.3995 57.1334 30.6339L51.7672 36.0002L57.1334 41.3664C57.3611 41.6022 57.4871 41.9179 57.4843 42.2457C57.4814 42.5734 57.35 42.8869 57.1182 43.1187C56.8864 43.3505 56.5729 43.4819 56.2452 43.4848C55.9174 43.4876 55.6017 43.3616 55.3659 43.1339L49.9997 37.7677L44.6334 43.1339C44.3977 43.3616 44.0819 43.4876 43.7542 43.4848C43.4264 43.4819 43.1129 43.3505 42.8812 43.1187C42.6494 42.8869 42.5179 42.5734 42.5151 42.2457C42.5122 41.9179 42.6382 41.6022 42.8659 41.3664L48.2322 36.0002L42.8659 30.6339C42.7465 30.5186 42.6513 30.3807 42.5858 30.2282C42.5203 30.0757 42.4858 29.9117 42.4844 29.7457C42.4829 29.5797 42.5146 29.4151 42.5774 29.2615C42.6403 29.1079 42.7331 28.9683 42.8504 28.8509C42.9678 28.7336 43.1074 28.6408 43.261 28.5779C43.4146 28.5151 43.5792 28.4834 43.7452 28.4849C43.9112 28.4863 44.0752 28.5208 44.2277 28.5863C44.3802 28.6518 44.5181 28.747 44.6334 28.8664L49.9997 34.2327L55.3659 28.8664C55.6003 28.6321 55.9182 28.5004 56.2497 28.5004C56.5811 28.5004 56.899 28.6321 57.1334 28.8664Z" fill="white"/>
<path d="M36.1748 67.9062C36.1156 67.5465 35.9823 67.2355 35.7749 66.9731C35.5718 66.7108 35.3136 66.5119 35.0005 66.3765C34.6916 66.2368 34.3509 66.167 33.9785 66.167C33.4749 66.167 33.0285 66.2939 32.6392 66.5479C32.2541 66.7975 31.9515 67.1657 31.7314 67.6523C31.5156 68.139 31.4077 68.723 31.4077 69.4043C31.4077 70.0941 31.5156 70.6823 31.7314 71.1689C31.9515 71.6514 32.2541 72.0174 32.6392 72.2671C33.0285 72.5168 33.4728 72.6416 33.9722 72.6416C34.3403 72.6416 34.6768 72.576 34.9814 72.4448C35.2861 72.3094 35.5422 72.1147 35.7495 71.8608C35.9611 71.6069 36.1029 71.3044 36.1748 70.9531L37.8442 70.9595C37.7596 71.5477 37.5459 72.083 37.2031 72.5654C36.8604 73.0479 36.4097 73.4287 35.8511 73.708C35.2925 73.9873 34.6598 74.127 33.9531 74.127C33.1449 74.127 32.4212 73.9386 31.7822 73.562C31.1475 73.1812 30.6502 72.6353 30.2905 71.9243C29.9308 71.2091 29.751 70.3691 29.751 69.4043C29.751 68.431 29.9329 67.5889 30.2969 66.8779C30.6608 66.167 31.158 65.6232 31.7886 65.2466C32.4233 64.87 33.1449 64.6816 33.9531 64.6816C34.6302 64.6816 35.2459 64.8107 35.8003 65.0688C36.3589 65.3228 36.8138 65.693 37.165 66.1797C37.5205 66.6621 37.7469 67.2376 37.8442 67.9062H36.1748ZM43.2969 70.9468C43.153 70.951 42.8293 70.9701 42.3257 71.0039L41.6846 71.0547C41.2868 71.0885 40.9779 71.188 40.7578 71.353C40.5378 71.5181 40.4277 71.7487 40.4277 72.0449C40.4277 72.2354 40.4764 72.3983 40.5737 72.5337C40.6711 72.6649 40.8086 72.7664 40.9863 72.8384C41.1683 72.9103 41.3714 72.9463 41.5957 72.9463C41.9173 72.9463 42.1987 72.8828 42.4399 72.7559C42.6854 72.6247 42.8737 72.4512 43.0049 72.2354C43.1403 72.0195 43.208 71.7826 43.208 71.5244L43.1953 69.3218C43.1953 69.0933 43.1488 68.8986 43.0557 68.7378C42.9626 68.577 42.8208 68.4564 42.6304 68.376C42.4442 68.2956 42.2157 68.2554 41.9448 68.2554C41.5978 68.2554 41.3122 68.3273 41.0879 68.4712C40.8678 68.6151 40.7261 68.814 40.6626 69.0679H39.0884C39.1349 68.6743 39.2788 68.3231 39.52 68.0142C39.7655 67.701 40.0977 67.4577 40.5166 67.2842C40.9398 67.1064 41.4307 67.0176 41.9893 67.0176C42.4801 67.0176 42.9351 67.0916 43.354 67.2397C43.7729 67.3879 44.12 67.6396 44.395 67.9951C44.6701 68.3464 44.8076 68.8097 44.8076 69.3853V74H43.2588V73.0479H43.208C43.1022 73.2552 42.9583 73.4393 42.7764 73.6001C42.5986 73.7609 42.3743 73.8921 42.1035 73.9937C41.8327 74.091 41.5238 74.1396 41.1768 74.1396C40.7324 74.1396 40.3368 74.0592 39.9897 73.8984C39.6427 73.7376 39.3677 73.5007 39.1646 73.1875C38.9657 72.8743 38.8662 72.4998 38.8662 72.064C38.8662 71.3446 39.1053 70.8283 39.5835 70.5151C40.0617 70.1978 40.6795 70.0158 41.437 69.9692C41.547 69.9565 41.9427 69.9354 42.624 69.9058L43.2842 69.8804L43.2969 70.9468ZM47.9561 74H46.3438V67.1064H47.8862V68.2744H47.9624C48.1317 67.8766 48.3898 67.5677 48.7368 67.3477C49.0838 67.1276 49.5112 67.0176 50.019 67.0176C50.4972 67.0176 50.9119 67.1191 51.2632 67.3223C51.6187 67.5212 51.8916 67.8153 52.082 68.2046C52.2767 68.5939 52.374 69.0615 52.374 69.6074V74H50.7617V69.855C50.7617 69.5461 50.7088 69.2837 50.603 69.0679C50.4972 68.8478 50.3449 68.6785 50.146 68.5601C49.9471 68.4416 49.7038 68.3823 49.416 68.3823C49.1283 68.3823 48.8743 68.4437 48.6543 68.5664C48.4342 68.6891 48.2629 68.869 48.1401 69.106C48.0174 69.3429 47.9561 69.6265 47.9561 69.9565V74ZM56.938 74.1333C56.2651 74.1333 55.6769 73.9831 55.1733 73.6826C54.674 73.3822 54.291 72.9632 54.0244 72.4258C53.762 71.8883 53.6309 71.2726 53.6309 70.5786C53.6309 69.8804 53.7663 69.2625 54.0371 68.7251C54.3079 68.1834 54.6909 67.7645 55.186 67.4683C55.6812 67.1678 56.2609 67.0176 56.9253 67.0176C57.4797 67.0176 57.9748 67.1191 58.4106 67.3223C58.8465 67.5212 59.1914 67.8089 59.4453 68.1855C59.7035 68.5579 59.8494 68.9917 59.8833 69.4868H58.3408C58.2985 69.2583 58.216 69.0573 58.0933 68.8838C57.9705 68.7061 57.814 68.5664 57.6235 68.4648C57.4331 68.3633 57.2088 68.3125 56.9507 68.3125C56.6164 68.3125 56.3223 68.4035 56.0684 68.5854C55.8145 68.7632 55.6156 69.0192 55.4717 69.3535C55.332 69.6878 55.2622 70.0856 55.2622 70.5469C55.2622 71.0124 55.332 71.4165 55.4717 71.7593C55.6113 72.0978 55.8081 72.3581 56.062 72.54C56.3159 72.722 56.6121 72.813 56.9507 72.813C57.1919 72.813 57.4077 72.7686 57.5981 72.6797C57.7928 72.5866 57.9536 72.4533 58.0806 72.2798C58.2075 72.1021 58.2943 71.8926 58.3408 71.6514H59.8833C59.8452 72.138 59.7013 72.5675 59.4517 72.9399C59.202 73.3123 58.8613 73.6043 58.4297 73.8159C58.0023 74.0275 57.505 74.1333 56.938 74.1333ZM64.1553 74.1333C63.474 74.1333 62.8815 73.9894 62.3779 73.7017C61.8743 73.4139 61.485 73.0034 61.21 72.4702C60.9391 71.937 60.8037 71.3128 60.8037 70.5977C60.8037 69.891 60.9391 69.2668 61.21 68.7251C61.485 68.1792 61.868 67.7581 62.3589 67.4619C62.8498 67.1657 63.4211 67.0176 64.0728 67.0176C64.661 67.0176 65.1921 67.1424 65.666 67.3921C66.14 67.6418 66.5166 68.029 66.7959 68.5537C67.0752 69.0742 67.2148 69.7196 67.2148 70.4897V70.9976H61.5718V69.8994H65.666C65.666 69.5863 65.6004 69.307 65.4692 69.0615C65.3381 68.8161 65.1519 68.6235 64.9106 68.4839C64.6737 68.3442 64.4007 68.2744 64.0918 68.2744C63.7617 68.2744 63.4697 68.3527 63.2158 68.5093C62.9619 68.6659 62.763 68.8774 62.6191 69.144C62.4795 69.4064 62.4076 69.6942 62.4033 70.0073V70.9468C62.4033 71.3488 62.4753 71.6958 62.6191 71.9878C62.7673 72.2756 62.9746 72.4956 63.2412 72.6479C63.5078 72.8003 63.8188 72.8765 64.1743 72.8765C64.4028 72.8765 64.6081 72.8447 64.79 72.7812C64.9762 72.7178 65.1349 72.6353 65.2661 72.5337C65.3973 72.4279 65.4967 72.3031 65.5645 72.1592H67.1514C67.054 72.5527 66.87 72.8997 66.5991 73.2002C66.3325 73.4964 65.9897 73.7271 65.5708 73.8921C65.1519 74.0529 64.68 74.1333 64.1553 74.1333ZM70.0967 74H68.4844V64.8086H70.0967V74Z" fill="#F06B9C"/>
</g>
<defs>
<clipPath id="clip0_9_144">
<rect width="100" height="110" fill="white"/>
</clipPath>
</defs>
</svg>
