<svg width="102" height="24" viewBox="0 0 102 24" fill="none" xmlns="http://www.w3.org/2000/svg">
<path d="M9.75421 8.59484C8.58449 9.79705 7.99963 11.2178 7.99963 12.8572C7.99963 11.2178 7.41477 9.79705 6.24505 8.59484C5.07533 7.39263 3.61797 6.66402 1.87298 6.40901C1.77786 6.39152 1.69157 6.40063 1.6141 6.43633C1.53663 6.47203 1.45993 6.51757 1.38399 6.57295C1.30806 6.62832 1.25552 6.69681 1.22637 6.77842C1.19722 6.86002 1.19224 6.94636 1.21141 7.03744C1.42311 8.47717 2.04172 9.72965 3.06724 10.7949C4.09276 11.8601 5.81359 12.5111 7.3093 12.7479V17.9999H8.68996V12.7479C10.1864 12.5104 11.9076 11.859 12.9332 10.7938C13.9587 9.72856 14.5769 8.47644 14.7878 7.03744C14.8078 6.94563 14.8032 6.85893 14.774 6.77732C14.7449 6.69572 14.692 6.62759 14.6153 6.57295C14.5386 6.5183 14.4619 6.47276 14.3852 6.43633C14.3084 6.3999 14.2222 6.39079 14.1263 6.40901C12.3813 6.66402 10.9239 7.39263 9.75421 8.59484Z" fill="#E0E0E0"/>
<path d="M35.6791 9.20288H32.6583V18.265H35.6791V9.20288Z" fill="#E0E0E0"/>
<path d="M29.2217 8.1241C28.9786 8.1241 28.7774 7.93496 28.8166 7.70546C28.921 7.09952 29.2475 6.54869 29.7378 6.15116C30.2281 5.75362 30.8504 5.53523 31.4936 5.53491C32.9907 5.53491 34.2059 6.6908 34.2059 8.1241H29.2217ZM34.2059 8.1241H39.1901C39.4331 8.1241 39.6339 7.93496 39.5952 7.70546C39.4911 7.09934 39.1648 6.54826 38.6744 6.15066C38.184 5.75305 37.5615 5.53481 36.9181 5.53491C35.4211 5.53491 34.2059 6.695 34.2059 8.1241Z" fill="#E0E0E0"/>
<path d="M33.7566 8.56852C33.9794 8.71038 34.2712 8.71038 34.494 8.56852C35.1315 8.16281 35.8883 7.98689 36.6394 8.06987C37.3905 8.15286 38.0907 8.48977 38.6243 9.02486C39.1804 9.58268 39.5208 10.3197 39.5847 11.1048C39.6486 11.8899 39.4319 12.6723 38.9733 13.3127C38.7996 13.5543 38.4533 13.5522 38.2429 13.3418L34.5069 9.60581C34.4058 9.50469 34.2686 9.44788 34.1255 9.44788C33.9825 9.44788 33.8453 9.50469 33.7442 9.60581L30.0082 13.3418C29.7978 13.5522 29.4515 13.5543 29.2773 13.3127C28.8166 12.673 28.5987 11.8901 28.6628 11.1044C28.7268 10.3187 29.0686 9.58149 29.6268 9.02486C30.1616 8.49209 30.8615 8.15677 31.6118 8.07386C32.3621 7.99095 33.1184 8.16536 33.7566 8.56852Z" fill="#E0E0E0"/>
<rect x="31.8324" y="8.12402" width="4.74685" height="0.863063" fill="#E0E0E0"/>
<path d="M33.7312 9.28916C33.7312 9.59817 33.6084 9.89453 33.3899 10.113C33.1714 10.3315 32.875 10.4543 32.566 10.4543C32.257 10.4543 31.9606 10.3315 31.7421 10.113C31.5236 9.89453 31.4009 9.59817 31.4009 9.28916C31.4009 8.98015 31.5236 8.68379 31.7421 8.46528C31.9606 8.24678 32.257 8.12402 32.566 8.12402C32.875 8.12402 33.1714 8.24678 33.3899 8.46528C33.6084 8.68379 33.7312 8.98015 33.7312 9.28916ZM36.8921 10.2439C36.8921 10.5529 36.7694 10.8493 36.5509 11.0678C36.3324 11.2863 36.036 11.4091 35.727 11.4091C35.418 11.4091 35.1216 11.2863 34.9031 11.0678C34.6846 10.8493 34.5619 10.5529 34.5619 10.2439C34.5619 9.93491 34.6846 9.63855 34.9031 9.42005C35.1216 9.20154 35.418 9.07879 35.727 9.07879C36.036 9.07879 36.3324 9.20154 36.5509 9.42005C36.7694 9.63855 36.8921 9.93491 36.8921 10.2439Z" fill="white"/>
<path d="M65.7974 12.378C65.6252 12.378 65.4581 12.3993 65.2981 12.4388C65.3346 12.28 65.3532 12.1176 65.3533 11.9547C65.3533 10.7634 64.3875 9.79761 63.1962 9.79761C62.7613 9.797 62.3364 9.92847 61.9779 10.1746C61.5733 8.61554 60.1566 7.46436 58.4709 7.46436C56.4699 7.46436 54.8478 9.08648 54.8478 11.0874C53.3434 11.0874 52.1238 12.307 52.1238 13.8114C52.1238 15.3159 53.3434 16.5354 54.8478 16.5354H65.7974C66.9455 16.5354 67.8762 15.6048 67.8762 14.4567C67.8762 13.3086 66.9455 12.378 65.7974 12.378Z" fill="#E0E0E0"/>
<path fill-rule="evenodd" clip-rule="evenodd" d="M85.455 3.46409C85.4813 3.29632 85.5499 3.13802 85.6543 3.00409C85.7587 2.87017 85.8955 2.76503 86.0517 2.6986C86.208 2.63217 86.3786 2.60663 86.5475 2.62438C86.7164 2.64214 86.878 2.7026 87.017 2.80009L89.354 4.44009C89.5248 4.56012 89.7289 4.6237 89.9376 4.62191C90.1463 4.62011 90.3493 4.55304 90.518 4.43009L92.824 2.74809C92.9612 2.64805 93.1216 2.58461 93.2902 2.56374C93.4587 2.54286 93.6297 2.56525 93.7872 2.62878C93.9447 2.69231 94.0834 2.79489 94.1903 2.92686C94.2971 3.05883 94.3686 3.21584 94.398 3.38309L94.89 6.19509C94.9259 6.40085 95.0254 6.5902 95.1745 6.73655C95.3235 6.88289 95.5146 6.9789 95.721 7.01109L98.541 7.45209C98.7089 7.47829 98.8674 7.54686 99.0015 7.65133C99.1355 7.75579 99.2408 7.8927 99.3072 8.04912C99.3737 8.20555 99.3992 8.37633 99.3813 8.54535C99.3634 8.71436 99.3027 8.87603 99.205 9.01509L97.565 11.3511C97.445 11.5219 97.3814 11.7259 97.3832 11.9347C97.385 12.1434 97.4521 12.3464 97.575 12.5151L99.258 14.8221C99.358 14.9593 99.4215 15.1197 99.4424 15.2883C99.4632 15.4568 99.4408 15.6278 99.3773 15.7853C99.3138 15.9428 99.2112 16.0815 99.0792 16.1883C98.9473 16.2952 98.7902 16.3667 98.623 16.3961L95.811 16.8881C95.6054 16.924 95.4161 17.0233 95.2698 17.1721C95.1235 17.321 95.0274 17.5119 94.995 17.7181L94.554 20.5391C94.5278 20.707 94.4592 20.8655 94.3548 20.9996C94.2503 21.1336 94.1134 21.2388 93.957 21.3053C93.8005 21.3717 93.6298 21.3972 93.4607 21.3794C93.2917 21.3615 93.1301 21.3008 92.991 21.2031L90.655 19.5631C90.4842 19.4431 90.2801 19.3795 90.0714 19.3813C89.8627 19.3831 89.6597 19.4501 89.491 19.5731L87.184 21.2561C87.0467 21.3561 86.8862 21.4196 86.7176 21.4404C86.549 21.4612 86.3779 21.4387 86.2204 21.3751C86.0629 21.3114 85.9242 21.2087 85.8174 21.0766C85.7106 20.9445 85.6392 20.7874 85.61 20.6201L85.118 17.8081C85.0821 17.6025 84.9828 17.4132 84.834 17.2669C84.6851 17.1206 84.4942 17.0245 84.288 16.9921L81.467 16.5521C81.2991 16.5259 81.1406 16.4573 81.0065 16.3528C80.8725 16.2484 80.7672 16.1115 80.7008 15.955C80.6343 15.7986 80.6089 15.6278 80.6267 15.4588C80.6446 15.2898 80.7053 15.1281 80.803 14.9891L82.443 12.6521C82.563 12.4813 82.6266 12.2772 82.6248 12.0685C82.623 11.8597 82.556 11.6568 82.433 11.4881L80.75 9.18209C80.65 9.0448 80.5865 8.8843 80.5657 8.71571C80.5449 8.54712 80.5674 8.37601 80.631 8.21851C80.6946 8.06102 80.7974 7.92233 80.9295 7.81553C81.0615 7.70873 81.2187 7.63733 81.386 7.60809L84.198 7.11509C84.4034 7.07902 84.5925 6.97961 84.7386 6.83078C84.8847 6.68195 84.9807 6.49115 85.013 6.28509L85.455 3.46409ZM90 17.0001C91.3261 17.0001 92.5979 16.4733 93.5355 15.5356C94.4732 14.5979 95 13.3262 95 12.0001C95 10.674 94.4732 9.40223 93.5355 8.46455C92.5979 7.52687 91.3261 7.00009 90 7.00009C88.6739 7.00009 87.4021 7.52687 86.4645 8.46455C85.5268 9.40223 85 10.674 85 12.0001C85 13.3262 85.5268 14.5979 86.4645 15.5356C87.4021 16.4733 88.6739 17.0001 90 17.0001Z" fill="#3CAC5C"/>
<path fill-rule="evenodd" clip-rule="evenodd" d="M93.6 11.9999C93.6 12.9547 93.2207 13.8704 92.5456 14.5455C91.8704 15.2206 90.9548 15.5999 90 15.5999C89.0452 15.5999 88.1295 15.2206 87.4544 14.5455C86.7793 13.8704 86.4 12.9547 86.4 11.9999C86.4 11.0451 86.7793 10.1294 87.4544 9.45432C88.1295 8.77919 89.0452 8.3999 90 8.3999C90.9548 8.3999 91.8704 8.77919 92.5456 9.45432C93.2207 10.1294 93.6 11.0451 93.6 11.9999Z" fill="#3CAC5C"/>
</svg>
