<svg width="102" height="24" viewBox="0 0 102 24" fill="none" xmlns="http://www.w3.org/2000/svg">
<path d="M9.75421 8.59484C8.58449 9.79705 7.99963 11.2178 7.99963 12.8572C7.99963 11.2178 7.41477 9.79705 6.24505 8.59484C5.07533 7.39263 3.61797 6.66402 1.87298 6.40901C1.77787 6.39152 1.69158 6.40063 1.61411 6.43633C1.53664 6.47203 1.45993 6.51757 1.384 6.57295C1.30806 6.62832 1.25552 6.69681 1.22637 6.77842C1.19723 6.86002 1.19224 6.94636 1.21141 7.03744C1.42312 8.47717 2.04172 9.72965 3.06724 10.7949C4.09276 11.8601 5.8136 12.5111 7.30931 12.7479V17.9999H8.68996V12.7479C10.1864 12.5104 11.9076 11.859 12.9332 10.7938C13.9587 9.72856 14.5769 8.47644 14.7878 7.03744C14.8078 6.94563 14.8032 6.85893 14.774 6.77732C14.7449 6.69572 14.692 6.62759 14.6153 6.57295C14.5386 6.5183 14.4619 6.47276 14.3852 6.43633C14.3085 6.3999 14.2222 6.39079 14.1263 6.40901C12.3813 6.66402 10.9239 7.39263 9.75421 8.59484Z" fill="#E0E0E0"/>
<path d="M40.5186 7.80444H35.9875V21.3977H40.5186V7.80444Z" fill="#3CAC5C"/>
<path d="M30.8325 6.18603C30.468 6.18603 30.1661 5.90231 30.2249 5.55807C30.3816 4.64916 30.8713 3.82291 31.6067 3.22661C32.3422 2.63031 33.2755 2.30272 34.2405 2.30225C36.486 2.30225 38.3088 4.03608 38.3088 6.18603H30.8325ZM38.3088 6.18603H45.7852C46.1497 6.18603 46.4509 5.90231 46.3928 5.55807C46.2367 4.64889 45.7472 3.82227 45.0116 3.22586C44.276 2.62945 43.3423 2.30209 42.3772 2.30225C40.1317 2.30225 38.3088 4.04238 38.3088 6.18603Z" fill="#3CAC5C"/>
<path d="M37.6349 6.85278C37.969 7.06557 38.4068 7.06557 38.7409 6.85278C39.6972 6.24421 40.8325 5.98034 41.9591 6.10481C43.0857 6.22929 44.1361 6.73465 44.9364 7.53729C45.7707 8.37401 46.2811 9.47952 46.377 10.6572C46.4728 11.8349 46.1479 13.0084 45.4599 13.969C45.1994 14.3315 44.6799 14.3283 44.3643 14.0127L38.7604 8.40872C38.6086 8.25703 38.4029 8.17182 38.1883 8.17182C37.9738 8.17182 37.768 8.25703 37.6163 8.40872L32.0123 14.0127C31.6967 14.3283 31.1773 14.3315 30.9159 13.969C30.2249 13.0095 29.8981 11.8352 29.9942 10.6566C30.0903 9.47807 30.6029 8.37224 31.4402 7.53729C32.2424 6.73813 33.2923 6.23515 34.4177 6.11078C35.5432 5.98642 36.6776 6.24804 37.6349 6.85278Z" fill="#3CAC5C"/>
<rect x="34.7486" y="6.18604" width="7.12027" height="1.2946" fill="#3CAC5C"/>
<path d="M37.5967 7.93374C37.5967 8.39726 37.4126 8.84179 37.0848 9.16955C36.7571 9.49731 36.3125 9.68144 35.849 9.68144C35.3855 9.68144 34.941 9.49731 34.6132 9.16955C34.2855 8.84179 34.1013 8.39726 34.1013 7.93374C34.1013 7.47022 34.2855 7.02568 34.6132 6.69793C34.941 6.37017 35.3855 6.18604 35.849 6.18604C36.3125 6.18604 36.7571 6.37017 37.0848 6.69793C37.4126 7.02568 37.5967 7.47022 37.5967 7.93374ZM42.3382 9.36589C42.3382 9.8294 42.1541 10.2739 41.8263 10.6017C41.4985 10.9295 41.054 11.1136 40.5905 11.1136C40.127 11.1136 39.6824 10.9295 39.3547 10.6017C39.0269 10.2739 38.8428 9.8294 38.8428 9.36589C38.8428 8.90236 39.0269 8.45783 39.3547 8.13007C39.6824 7.80231 40.127 7.61818 40.5905 7.61818C41.054 7.61818 41.4985 7.80231 41.8263 8.13007C42.1541 8.45783 42.3382 8.90236 42.3382 9.36589Z" fill="white"/>
<path d="M73.7974 12.378C73.6252 12.378 73.4581 12.3993 73.2981 12.4388C73.3346 12.28 73.3532 12.1176 73.3533 11.9547C73.3533 10.7634 72.3875 9.79761 71.1962 9.79761C70.7613 9.797 70.3364 9.92847 69.9779 10.1746C69.5733 8.61554 68.1566 7.46436 66.4709 7.46436C64.4699 7.46436 62.8478 9.08648 62.8478 11.0874C61.3434 11.0874 60.1238 12.307 60.1238 13.8114C60.1238 15.3159 61.3434 16.5354 62.8478 16.5354H73.7974C74.9455 16.5354 75.8762 15.6048 75.8762 14.4567C75.8762 13.3086 74.9455 12.378 73.7974 12.378Z" fill="#E0E0E0"/>
<path fill-rule="evenodd" clip-rule="evenodd" d="M90.97 6.30915C90.9875 6.1973 91.0332 6.09177 91.1028 6.00248C91.1724 5.9132 91.2636 5.84311 91.3678 5.79882C91.472 5.75454 91.5857 5.73751 91.6983 5.74934C91.8109 5.76118 91.9186 5.80149 92.0113 5.86648L93.5693 6.95981C93.6832 7.03984 93.8192 7.08222 93.9584 7.08103C94.0976 7.07983 94.2329 7.03511 94.3453 6.95315L95.8827 5.83181C95.9741 5.76512 96.0811 5.72283 96.1934 5.70891C96.3058 5.695 96.4198 5.70992 96.5248 5.75227C96.6298 5.79463 96.7223 5.86302 96.7935 5.951C96.8647 6.03898 96.9124 6.14365 96.932 6.25515L97.26 8.12981C97.284 8.26699 97.3503 8.39322 97.4496 8.49079C97.549 8.58835 97.6764 8.65236 97.814 8.67381L99.694 8.96781C99.8059 8.98528 99.9116 9.031 100.001 9.10064C100.09 9.17028 100.16 9.26155 100.205 9.36584C100.249 9.47012 100.266 9.58398 100.254 9.69665C100.242 9.80933 100.202 9.91711 100.137 10.0098L99.0433 11.5671C98.9633 11.681 98.9209 11.8171 98.9221 11.9562C98.9233 12.0954 98.968 12.2307 99.05 12.3431L100.172 13.8811C100.239 13.9726 100.281 14.0796 100.295 14.1919C100.309 14.3043 100.294 14.4183 100.252 14.5233C100.209 14.6283 100.141 14.7207 100.053 14.792C99.9648 14.8632 99.8602 14.9109 99.7487 14.9305L97.874 15.2585C97.7369 15.2824 97.6108 15.3486 97.5132 15.4478C97.4156 15.5471 97.3516 15.6743 97.33 15.8118L97.036 17.6925C97.0185 17.8044 96.9728 17.9101 96.9032 17.9995C96.8335 18.0888 96.7423 18.159 96.638 18.2033C96.5337 18.2476 96.4198 18.2646 96.3072 18.2527C96.1945 18.2407 96.0867 18.2003 95.994 18.1351L94.4367 17.0418C94.3228 16.9618 94.1868 16.9194 94.0476 16.9206C93.9084 16.9218 93.7731 16.9665 93.6607 17.0485L92.1227 18.1705C92.0311 18.2372 91.9241 18.2795 91.8117 18.2933C91.6994 18.3072 91.5853 18.2922 91.4803 18.2498C91.3753 18.2074 91.2828 18.1389 91.2116 18.0508C91.1404 17.9628 91.0928 17.858 91.0733 17.7465L90.7453 15.8718C90.7214 15.7347 90.6552 15.6086 90.556 15.511C90.4567 15.4135 90.3295 15.3494 90.192 15.3278L88.3113 15.0345C88.1994 15.017 88.0937 14.9713 88.0044 14.9017C87.915 14.832 87.8448 14.7407 87.8005 14.6365C87.7562 14.5322 87.7392 14.4183 87.7512 14.3056C87.7631 14.193 87.8035 14.0852 87.8687 13.9925L88.962 12.4345C89.042 12.3206 89.0844 12.1846 89.0832 12.0454C89.082 11.9062 89.0373 11.7709 88.9553 11.6585L87.8333 10.1211C87.7666 10.0296 87.7244 9.92262 87.7105 9.81023C87.6966 9.69784 87.7116 9.58376 87.754 9.47876C87.7964 9.37377 87.8649 9.28131 87.953 9.21011C88.041 9.13891 88.1458 9.09131 88.2573 9.07181L90.132 8.74315C90.269 8.7191 90.395 8.65283 90.4924 8.55361C90.5898 8.45439 90.6538 8.32719 90.6753 8.18981L90.97 6.30915ZM94 15.3331C94.8841 15.3331 95.7319 14.982 96.357 14.3568C96.9821 13.7317 97.3333 12.8839 97.3333 11.9998C97.3333 11.1158 96.9821 10.2679 96.357 9.64279C95.7319 9.01767 94.8841 8.66648 94 8.66648C93.1159 8.66648 92.2681 9.01767 91.643 9.64279C91.0179 10.2679 90.6667 11.1158 90.6667 11.9998C90.6667 12.8839 91.0179 13.7317 91.643 14.3568C92.2681 14.982 93.1159 15.3331 94 15.3331Z" fill="#E0E0E0"/>
<path fill-rule="evenodd" clip-rule="evenodd" d="M96.4 12.0001C96.4 12.6366 96.1471 13.2471 95.697 13.6972C95.247 14.1472 94.6365 14.4001 94 14.4001C93.3635 14.4001 92.753 14.1472 92.3029 13.6972C91.8528 13.2471 91.6 12.6366 91.6 12.0001C91.6 11.3636 91.8528 10.7531 92.3029 10.303C92.753 9.85295 93.3635 9.6001 94 9.6001C94.6365 9.6001 95.247 9.85295 95.697 10.303C96.1471 10.7531 96.4 11.3636 96.4 12.0001Z" fill="#E0E0E0"/>
</svg>
