<svg width="100" height="110" viewBox="0 0 100 110" fill="none" xmlns="http://www.w3.org/2000/svg">
<path d="M61.5596 27C61.967 27.0009 62.3086 27.1355 62.585 27.4033C62.8623 27.6721 63.001 28.0047 63 28.4004V31.2002C63 31.97 62.7173 32.6291 62.1523 33.1777C61.8464 33.4748 61.5052 33.6882 61.1318 33.8242L60.1123 46.5C60.1124 47.6477 59.6899 48.7518 58.9316 49.5869C58.1734 50.4219 57.1366 50.9247 56.0332 50.9922L55.7783 51H44.2217C41.9132 51 40.0265 49.1265 39.8994 46.875L39.8916 46.624L38.8643 33.8223C38.493 33.6861 38.1543 33.473 37.8496 33.1777C37.2845 32.6299 37.001 31.971 37 31.2002V28.4004C37 28.0037 37.1387 27.6712 37.416 27.4033C37.6924 27.1363 38.0339 27.0018 38.4404 27H61.5596ZM52.8896 21C53.6558 21.0001 54.3909 21.3164 54.9326 21.8789C55.4743 22.4415 55.7783 23.2045 55.7783 24C55.7779 24.3823 55.7783 24.7502 55.7783 25.2002H52.8994C52.8994 24.9045 52.8893 24.6042 52.8994 24.1758L52.8896 24H47.1104L47.1006 24.1758V25.2002H44.2217C44.2217 24.8779 44.2221 24.3823 44.2217 24C44.2214 23.2431 44.4966 22.514 44.9922 21.959C45.4878 21.4041 46.1677 21.0646 46.8945 21.0078L47.1104 21H52.8896Z" fill="#ED4D85"/>
<path d="M46 35V45" stroke="white" stroke-width="1.8" stroke-linecap="round" stroke-linejoin="round"/>
<path d="M54 35V45" stroke="white" stroke-width="1.8" stroke-linecap="round" stroke-linejoin="round"/>
<path d="M33.7755 63.653H40.2235V64.719H37.6365V65.876C37.6365 67.787 38.8585 69.763 40.6265 70.53L39.9115 71.544C38.5855 70.933 37.5455 69.685 37.0125 68.177C36.4795 69.789 35.4395 71.18 34.1005 71.817L33.3725 70.816C35.1275 69.984 36.3495 67.839 36.3495 65.876V64.719H33.7755V63.653ZM41.5885 62.509H42.8625V74.014H41.5885V62.509ZM44.7868 69.048H55.2128V70.088H50.5978V74.014H49.3238V70.088H44.7868V69.048ZM49.9608 62.964C52.3918 62.964 54.0428 63.939 54.0428 65.486C54.0428 67.046 52.3918 68.034 49.9608 68.034C47.5428 68.034 45.8918 67.046 45.8918 65.486C45.8918 63.939 47.5428 62.964 49.9608 62.964ZM49.9608 63.978C48.2968 63.978 47.2048 64.55 47.2048 65.486C47.2048 66.435 48.2968 67.02 49.9608 67.02C51.6378 67.02 52.7428 66.435 52.7428 65.486C52.7428 64.55 51.6378 63.978 49.9608 63.978ZM64.3522 62.509H65.6262V74.014H64.3522V62.509ZM62.2332 63.718C62.2332 67.124 60.8552 70.023 56.9032 71.947L56.2402 70.933C59.2692 69.477 60.6862 67.436 60.9202 64.758H56.7862V63.718H62.2332Z" fill="#F06B9C"/>
</svg>
