<svg width="102" height="24" viewBox="0 0 102 24" fill="none" xmlns="http://www.w3.org/2000/svg">
<path d="M14.6313 6.8925C12.8767 8.69581 11.9994 10.827 11.9994 13.2861C11.9994 10.827 11.1222 8.69581 9.36758 6.8925C7.613 5.08919 5.42696 3.99628 2.80947 3.61376C2.6668 3.58753 2.53737 3.60119 2.42116 3.65474C2.30496 3.7083 2.1899 3.7766 2.076 3.85967C1.96209 3.94273 1.88328 4.04546 1.83956 4.16787C1.79584 4.29027 1.78836 4.41978 1.81712 4.5564C2.13467 6.716 3.06259 8.59472 4.60087 10.1926C6.13915 11.7904 8.7204 12.7669 10.964 13.1221V21.0001H13.0349V13.1221C15.2797 12.7658 17.8615 11.7888 19.3998 10.1909C20.938 8.59308 21.8654 6.71491 22.1818 4.5564C22.2117 4.41869 22.2048 4.28863 22.1611 4.16623C22.1173 4.04382 22.038 3.94163 21.9229 3.85967C21.8078 3.7777 21.6928 3.70939 21.5777 3.65474C21.4627 3.6001 21.3333 3.58644 21.1894 3.61376C18.5719 3.99628 16.3859 5.08919 14.6313 6.8925Z" fill="#3CAC5C"/>
<path d="M43.6791 9.20288H40.6583V18.265H43.6791V9.20288Z" fill="#E0E0E0"/>
<path d="M37.2217 8.1241C36.9786 8.1241 36.7774 7.93496 36.8166 7.70546C36.921 7.09952 37.2475 6.54869 37.7378 6.15116C38.2281 5.75362 38.8504 5.53523 39.4936 5.53491C40.9907 5.53491 42.2059 6.6908 42.2059 8.1241H37.2217ZM42.2059 8.1241H47.1901C47.4331 8.1241 47.6339 7.93496 47.5952 7.70546C47.4911 7.09934 47.1648 6.54826 46.6744 6.15066C46.184 5.75305 45.5615 5.53481 44.9181 5.53491C43.4211 5.53491 42.2059 6.695 42.2059 8.1241Z" fill="#E0E0E0"/>
<path d="M41.7566 8.56852C41.9794 8.71038 42.2712 8.71038 42.494 8.56852C43.1315 8.16281 43.8883 7.98689 44.6394 8.06987C45.3905 8.15286 46.0907 8.48977 46.6243 9.02486C47.1804 9.58268 47.5208 10.3197 47.5847 11.1048C47.6486 11.8899 47.4319 12.6723 46.9733 13.3127C46.7996 13.5543 46.4533 13.5522 46.2429 13.3418L42.5069 9.60581C42.4058 9.50469 42.2686 9.44788 42.1255 9.44788C41.9825 9.44788 41.8453 9.50469 41.7442 9.60581L38.0082 13.3418C37.7978 13.5522 37.4515 13.5543 37.2773 13.3127C36.8166 12.673 36.5987 11.8901 36.6628 11.1044C36.7268 10.3187 37.0686 9.58149 37.6268 9.02486C38.1616 8.49209 38.8615 8.15677 39.6118 8.07386C40.3621 7.99095 41.1184 8.16536 41.7566 8.56852Z" fill="#E0E0E0"/>
<rect x="39.8324" y="8.12402" width="4.74685" height="0.863063" fill="#E0E0E0"/>
<path d="M41.7312 9.28916C41.7312 9.59817 41.6084 9.89453 41.3899 10.113C41.1714 10.3315 40.875 10.4543 40.566 10.4543C40.257 10.4543 39.9606 10.3315 39.7421 10.113C39.5236 9.89453 39.4009 9.59817 39.4009 9.28916C39.4009 8.98015 39.5236 8.68379 39.7421 8.46528C39.9606 8.24678 40.257 8.12402 40.566 8.12402C40.875 8.12402 41.1714 8.24678 41.3899 8.46528C41.6084 8.68379 41.7312 8.98015 41.7312 9.28916ZM44.8921 10.2439C44.8921 10.5529 44.7694 10.8493 44.5509 11.0678C44.3324 11.2863 44.036 11.4091 43.727 11.4091C43.418 11.4091 43.1216 11.2863 42.9031 11.0678C42.6846 10.8493 42.5619 10.5529 42.5619 10.2439C42.5619 9.93491 42.6846 9.63855 42.9031 9.42005C43.1216 9.20154 43.418 9.07879 43.727 9.07879C44.036 9.07879 44.3324 9.20154 44.5509 9.42005C44.7694 9.63855 44.8921 9.93491 44.8921 10.2439Z" fill="white"/>
<path d="M73.7974 12.378C73.6252 12.378 73.4581 12.3993 73.2981 12.4388C73.3346 12.28 73.3532 12.1176 73.3533 11.9547C73.3533 10.7634 72.3875 9.79761 71.1962 9.79761C70.7613 9.797 70.3364 9.92847 69.9779 10.1746C69.5733 8.61554 68.1566 7.46436 66.4709 7.46436C64.4699 7.46436 62.8478 9.08648 62.8478 11.0874C61.3434 11.0874 60.1238 12.307 60.1238 13.8114C60.1238 15.3159 61.3434 16.5354 62.8478 16.5354H73.7974C74.9455 16.5354 75.8762 15.6048 75.8762 14.4567C75.8762 13.3086 74.9455 12.378 73.7974 12.378Z" fill="#E0E0E0"/>
<path fill-rule="evenodd" clip-rule="evenodd" d="M90.97 6.30915C90.9875 6.1973 91.0333 6.09177 91.1029 6.00248C91.1725 5.9132 91.2636 5.84311 91.3678 5.79882C91.472 5.75454 91.5858 5.73751 91.6983 5.74934C91.8109 5.76118 91.9186 5.80149 92.0113 5.86648L93.5693 6.95981C93.6832 7.03984 93.8192 7.08222 93.9584 7.08103C94.0976 7.07983 94.2329 7.03511 94.3453 6.95315L95.8827 5.83181C95.9741 5.76512 96.0811 5.72283 96.1934 5.70891C96.3058 5.695 96.4198 5.70992 96.5248 5.75227C96.6298 5.79463 96.7223 5.86302 96.7935 5.951C96.8648 6.03898 96.9124 6.14365 96.932 6.25515L97.26 8.12981C97.284 8.26699 97.3503 8.39322 97.4496 8.49079C97.549 8.58835 97.6764 8.65236 97.814 8.67381L99.694 8.96781C99.806 8.98528 99.9116 9.031 100.001 9.10064C100.09 9.17028 100.161 9.26155 100.205 9.36584C100.249 9.47012 100.266 9.58398 100.254 9.69665C100.242 9.80933 100.202 9.91711 100.137 10.0098L99.0433 11.5671C98.9633 11.681 98.9209 11.8171 98.9221 11.9562C98.9233 12.0954 98.968 12.2307 99.05 12.3431L100.172 13.8811C100.239 13.9726 100.281 14.0796 100.295 14.1919C100.309 14.3043 100.294 14.4183 100.252 14.5233C100.209 14.6283 100.141 14.7207 100.053 14.792C99.9648 14.8632 99.8602 14.9109 99.7487 14.9305L97.874 15.2585C97.7369 15.2824 97.6108 15.3486 97.5132 15.4478C97.4157 15.5471 97.3516 15.6743 97.33 15.8118L97.036 17.6925C97.0185 17.8044 96.9728 17.9101 96.9032 17.9995C96.8335 18.0888 96.7423 18.159 96.638 18.2033C96.5337 18.2476 96.4198 18.2646 96.3072 18.2527C96.1945 18.2407 96.0867 18.2003 95.994 18.1351L94.4367 17.0418C94.3228 16.9618 94.1868 16.9194 94.0476 16.9206C93.9084 16.9218 93.7731 16.9665 93.6607 17.0485L92.1227 18.1705C92.0311 18.2372 91.9241 18.2795 91.8118 18.2933C91.6994 18.3072 91.5853 18.2922 91.4803 18.2498C91.3753 18.2074 91.2828 18.1389 91.2116 18.0508C91.1404 17.9628 91.0928 17.858 91.0733 17.7465L90.7453 15.8718C90.7214 15.7347 90.6552 15.6086 90.556 15.511C90.4567 15.4135 90.3295 15.3494 90.192 15.3278L88.3113 15.0345C88.1994 15.017 88.0937 14.9713 88.0044 14.9017C87.915 14.832 87.8448 14.7407 87.8005 14.6365C87.7562 14.5322 87.7392 14.4183 87.7512 14.3056C87.7631 14.193 87.8035 14.0852 87.8687 13.9925L88.962 12.4345C89.042 12.3206 89.0844 12.1846 89.0832 12.0454C89.082 11.9062 89.0373 11.7709 88.9553 11.6585L87.8333 10.1211C87.7666 10.0296 87.7244 9.92262 87.7105 9.81023C87.6966 9.69784 87.7116 9.58376 87.754 9.47876C87.7964 9.37377 87.8649 9.28131 87.953 9.21011C88.041 9.13891 88.1458 9.09131 88.2573 9.07181L90.132 8.74315C90.269 8.7191 90.395 8.65283 90.4924 8.55361C90.5898 8.45439 90.6538 8.32719 90.6753 8.18981L90.97 6.30915ZM94 15.3331C94.8841 15.3331 95.7319 14.982 96.357 14.3568C96.9821 13.7317 97.3333 12.8839 97.3333 11.9998C97.3333 11.1158 96.9821 10.2679 96.357 9.64279C95.7319 9.01767 94.8841 8.66648 94 8.66648C93.116 8.66648 92.2681 9.01767 91.643 9.64279C91.0179 10.2679 90.6667 11.1158 90.6667 11.9998C90.6667 12.8839 91.0179 13.7317 91.643 14.3568C92.2681 14.982 93.116 15.3331 94 15.3331Z" fill="#E0E0E0"/>
<path fill-rule="evenodd" clip-rule="evenodd" d="M96.4 12.0001C96.4 12.6366 96.1471 13.2471 95.697 13.6972C95.247 14.1472 94.6365 14.4001 94 14.4001C93.3635 14.4001 92.753 14.1472 92.3029 13.6972C91.8528 13.2471 91.6 12.6366 91.6 12.0001C91.6 11.3636 91.8528 10.7531 92.3029 10.303C92.753 9.85295 93.3635 9.6001 94 9.6001C94.6365 9.6001 95.247 9.85295 95.697 10.303C96.1471 10.7531 96.4 11.3636 96.4 12.0001Z" fill="#E0E0E0"/>
</svg>
