<svg width="100" height="110" viewBox="0 0 100 110" fill="none" xmlns="http://www.w3.org/2000/svg">
<g clip-path="url(#clip0_9_120)">
<path d="M100 0H0V110H100V0Z" fill="#E7F5EA"/>
<path d="M50 34V23" stroke="#3CAC5C" stroke-width="2" stroke-linecap="round"/>
<path d="M42.2086 51.6051C42.792 52.0605 43.4725 52.2882 44.2503 52.2882H55.7503C56.5281 52.2882 57.2086 52.0605 57.792 51.6051C58.3753 51.1497 58.7642 50.5603 58.9586 49.837L60.8336 42.644H39.167L41.042 49.837C41.2364 50.5603 41.6253 51.1497 42.2086 51.6051Z" fill="#ED4D85"/>
<path d="M64.5217 33.4629C64.2017 33.1543 63.8056 33 63.3333 33H36.6667C36.1956 33.0011 35.8 33.1554 35.48 33.4629C35.16 33.7705 35 34.1519 35 34.6074V37.8221C35.0011 38.7072 35.3278 39.4643 35.98 40.0933C36.6322 40.7223 37.4167 41.0368 38.3333 41.0368H61.6667C62.5844 41.0379 63.3694 40.7234 64.0217 40.0933C64.6739 39.4632 65 38.7062 65 37.8221V34.6074C65.0011 34.153 64.8417 33.7715 64.5217 33.4629Z" fill="#ED4D85"/>
<path d="M50 20L45 27H55L50 20Z" fill="#3CAC5C" stroke="#3CAC5C" stroke-width="1.8" stroke-linecap="round" stroke-linejoin="round"/>
<path d="M38.3838 65.3286C38.3584 65.0705 38.2716 64.8462 38.1235 64.6558C37.9797 64.4653 37.7808 64.3236 37.5269 64.2305C37.2772 64.1331 36.9852 64.0845 36.6509 64.0845C36.3123 64.0845 36.0161 64.1353 35.7622 64.2368C35.5125 64.3384 35.3179 64.4801 35.1782 64.6621C35.0428 64.8441 34.9751 65.0535 34.9751 65.2905C34.9751 65.6375 35.119 65.9062 35.4067 66.0967C35.6987 66.2871 36.0796 66.4416 36.5493 66.5601L37.4062 66.7759C38.223 66.9663 38.8768 67.2689 39.3677 67.6836C39.8586 68.0983 40.1061 68.6759 40.1104 69.4165C40.1104 69.9539 39.9707 70.4279 39.6914 70.8384C39.4163 71.2489 39.0164 71.5684 38.4917 71.7969C37.9712 72.0254 37.347 72.1396 36.6191 72.1396C35.9082 72.1396 35.2882 72.0296 34.7593 71.8096C34.2345 71.5853 33.8262 71.2594 33.5342 70.832C33.2422 70.4046 33.0835 69.8905 33.0581 69.2896H34.6831C34.7085 69.6027 34.8079 69.8672 34.9814 70.083C35.1549 70.2946 35.3813 70.4554 35.6606 70.5654C35.9399 70.6712 36.2552 70.7241 36.6064 70.7241C36.9704 70.7241 37.292 70.6691 37.5713 70.5591C37.8506 70.4491 38.0664 70.2946 38.2188 70.0957C38.3753 69.8926 38.4536 69.6619 38.4536 69.4038C38.4536 69.1753 38.388 68.9827 38.2568 68.8262C38.1257 68.6654 37.9395 68.5321 37.6982 68.4263C37.4613 68.3205 37.1608 68.221 36.7969 68.1279L35.7495 67.8613C34.9624 67.654 34.3573 67.3493 33.9341 66.9473C33.5151 66.5452 33.3057 66.0247 33.3057 65.3857C33.3057 64.8525 33.4517 64.3828 33.7437 63.9766C34.0356 63.5661 34.4377 63.2487 34.9497 63.0244C35.4618 62.7959 36.0373 62.6816 36.6763 62.6816C37.3153 62.6816 37.8823 62.7938 38.3774 63.0181C38.8768 63.2424 39.2661 63.5555 39.5454 63.9575C39.8247 64.3553 39.9707 64.8123 39.9834 65.3286H38.3838ZM43.0239 72H41.4116V62.8086H42.9922V66.2744H43.0684C43.2334 65.8766 43.4873 65.5677 43.8301 65.3477C44.1729 65.1276 44.6024 65.0176 45.1187 65.0176C45.6011 65.0176 46.02 65.1191 46.3755 65.3223C46.731 65.5212 47.006 65.8153 47.2007 66.2046C47.3953 66.5939 47.4927 67.0615 47.4927 67.6074V72H45.8804V67.855C45.8804 67.5461 45.8254 67.2816 45.7153 67.0615C45.6095 66.8415 45.4551 66.6743 45.252 66.5601C45.0488 66.4416 44.8034 66.3823 44.5156 66.3823C44.2236 66.3823 43.9655 66.4437 43.7412 66.5664C43.5212 66.6891 43.3455 66.8711 43.2144 67.1123C43.0874 67.3493 43.0239 67.6307 43.0239 67.9565V72ZM53.1548 68.9468C53.0109 68.951 52.6872 68.9701 52.1836 69.0039L51.5425 69.0547C51.1447 69.0885 50.8358 69.188 50.6157 69.353C50.3957 69.5181 50.2856 69.7487 50.2856 70.0449C50.2856 70.2354 50.3343 70.3983 50.4316 70.5337C50.529 70.6649 50.6665 70.7664 50.8442 70.8384C51.0262 70.9103 51.2293 70.9463 51.4536 70.9463C51.7752 70.9463 52.0566 70.8828 52.2979 70.7559C52.5433 70.6247 52.7316 70.4512 52.8628 70.2354C52.9982 70.0195 53.0659 69.7826 53.0659 69.5244L53.0532 67.3218C53.0532 67.0933 53.0067 66.8986 52.9136 66.7378C52.8205 66.577 52.6787 66.4564 52.4883 66.376C52.3021 66.2956 52.0736 66.2554 51.8027 66.2554C51.4557 66.2554 51.1701 66.3273 50.9458 66.4712C50.7257 66.6151 50.584 66.814 50.5205 67.0679H48.9463C48.9928 66.6743 49.1367 66.3231 49.3779 66.0142C49.6234 65.701 49.9556 65.4577 50.3745 65.2842C50.7977 65.1064 51.2886 65.0176 51.8472 65.0176C52.3381 65.0176 52.793 65.0916 53.2119 65.2397C53.6309 65.3879 53.9779 65.6396 54.2529 65.9951C54.528 66.3464 54.6655 66.8097 54.6655 67.3853V72H53.1167V71.0479H53.0659C52.9601 71.2552 52.8162 71.4393 52.6343 71.6001C52.4565 71.7609 52.2323 71.8921 51.9614 71.9937C51.6906 72.091 51.3817 72.1396 51.0347 72.1396C50.5903 72.1396 50.1947 72.0592 49.8477 71.8984C49.5007 71.7376 49.2256 71.5007 49.0225 71.1875C48.8236 70.8743 48.7241 70.4998 48.7241 70.064C48.7241 69.3446 48.9632 68.8283 49.4414 68.5151C49.9196 68.1978 50.5374 68.0158 51.2949 67.9692C51.4049 67.9565 51.8006 67.9354 52.4819 67.9058L53.1421 67.8804L53.1548 68.9468ZM56.2017 65.1064H57.7632V66.2554H57.8394C57.9621 65.8576 58.1758 65.5508 58.4805 65.335C58.7852 65.1149 59.1364 65.0049 59.5342 65.0049C59.7373 65.0049 59.9341 65.0197 60.1245 65.0493V66.541C60.0568 66.5114 59.9468 66.4881 59.7944 66.4712C59.6421 66.4543 59.5003 66.4458 59.3691 66.4458C59.0771 66.4458 58.8127 66.5093 58.5757 66.6362C58.3387 66.7632 58.1525 66.9409 58.0171 67.1694C57.8817 67.3937 57.814 67.6519 57.814 67.9438V72H56.2017V65.1064ZM63.9204 72.1333C63.2391 72.1333 62.6466 71.9894 62.1431 71.7017C61.6395 71.4139 61.2502 71.0034 60.9751 70.4702C60.7043 69.937 60.5688 69.3128 60.5688 68.5977C60.5688 67.891 60.7043 67.2668 60.9751 66.7251C61.2502 66.1792 61.6331 65.7581 62.124 65.4619C62.6149 65.1657 63.1862 65.0176 63.8379 65.0176C64.4261 65.0176 64.9572 65.1424 65.4312 65.3921C65.9051 65.6418 66.2817 66.029 66.561 66.5537C66.8403 67.0742 66.98 67.7196 66.98 68.4897V68.9976H61.3369V67.8994H65.4312C65.4312 67.5863 65.3656 67.307 65.2344 67.0615C65.1032 66.8161 64.917 66.6235 64.6758 66.4839C64.4388 66.3442 64.1659 66.2744 63.8569 66.2744C63.5269 66.2744 63.2349 66.3527 62.981 66.5093C62.7271 66.6659 62.5282 66.8774 62.3843 67.144C62.2446 67.4064 62.1727 67.6942 62.1685 68.0073V68.9468C62.1685 69.3488 62.2404 69.6958 62.3843 69.9878C62.5324 70.2756 62.7397 70.4956 63.0063 70.6479C63.2729 70.8003 63.584 70.8765 63.9395 70.8765C64.168 70.8765 64.3732 70.8447 64.5552 70.7812C64.7414 70.7178 64.9001 70.6353 65.0312 70.5337C65.1624 70.4279 65.2619 70.3031 65.3296 70.1592H66.9165C66.8192 70.5527 66.6351 70.8997 66.3643 71.2002C66.0977 71.4964 65.7549 71.7271 65.3359 71.8921C64.917 72.0529 64.4451 72.1333 63.9204 72.1333Z" fill="#3CAC5C"/>
</g>
<defs>
<clipPath id="clip0_9_120">
<rect width="100" height="110" fill="white"/>
</clipPath>
</defs>
</svg>
