<svg width="100" height="110" viewBox="0 0 100 110" fill="none" xmlns="http://www.w3.org/2000/svg">
<rect width="100" height="110" fill="#FCE5EE"/>
<path d="M50 18.5C40.335 18.5 32.5 26.335 32.5 36C32.5 45.665 40.335 53.5 50 53.5C59.665 53.5 67.5 45.665 67.5 36C67.5 26.335 59.665 18.5 50 18.5Z" fill="#ED4D85"/>
<path d="M57.1337 28.8662C57.3681 29.1006 57.4997 29.4185 57.4997 29.75C57.4997 30.0814 57.3681 30.3993 57.1337 30.6337L51.7675 36L57.1337 41.3662C57.3614 41.602 57.4874 41.9177 57.4846 42.2455C57.4817 42.5732 57.3503 42.8867 57.1185 43.1185C56.8867 43.3503 56.5732 43.4817 56.2455 43.4846C55.9177 43.4874 55.602 43.3614 55.3662 43.1337L50 37.7675L44.6337 43.1337C44.398 43.3614 44.0822 43.4874 43.7545 43.4846C43.4267 43.4817 43.1132 43.3503 42.8815 43.1185C42.6497 42.8867 42.5182 42.5732 42.5154 42.2455C42.5125 41.9177 42.6385 41.602 42.8662 41.3662L48.2325 36L42.8662 30.6337C42.7468 30.5184 42.6516 30.3805 42.5861 30.228C42.5206 30.0755 42.4861 29.9115 42.4847 29.7455C42.4832 29.5795 42.5149 29.4149 42.5777 29.2613C42.6406 29.1077 42.7334 28.9681 42.8507 28.8507C42.9681 28.7334 43.1077 28.6406 43.2613 28.5777C43.4149 28.5149 43.5795 28.4832 43.7455 28.4847C43.9115 28.4861 44.0755 28.5206 44.228 28.5861C44.3805 28.6516 44.5184 28.7468 44.6337 28.8662L50 34.2325L55.3662 28.8662C55.6006 28.6319 55.9185 28.5002 56.25 28.5002C56.5814 28.5002 56.8993 28.6319 57.1337 28.8662Z" fill="white"/>
<path d="M39.8337 63.744H42.2387V62.535H43.5257V63.744H45.9567V64.745H43.5257C43.5257 65.798 44.5137 66.734 46.1777 67.098L45.6707 68.086C44.3577 67.787 43.4087 67.15 42.9147 66.292C42.4207 67.228 41.4457 67.93 40.0937 68.242L39.5607 67.254C41.2767 66.89 42.2517 65.863 42.2517 64.745H39.8337V63.744ZM47.3217 62.509H48.5957V74.027H47.3217V62.509ZM39.0927 68.931C41.2377 68.931 44.0847 68.918 46.5677 68.567L46.6457 69.503C45.6187 69.685 44.5657 69.789 43.5257 69.867V73.676H42.2517V69.932C41.1727 69.971 40.1587 69.984 39.2487 69.984L39.0927 68.931ZM50.468 71.518H54.992V68.814H56.266V71.518H60.894V72.571H50.468V71.518ZM54.953 63.211H56.305V64.082C56.305 65.889 58.203 67.592 60.452 67.969L59.906 69.048C58.034 68.671 56.383 67.514 55.629 65.967C54.862 67.514 53.224 68.671 51.352 69.048L50.819 67.969C53.068 67.592 54.953 65.863 54.953 64.082V63.211Z" fill="#F06B9C"/>
</svg>
