<svg width="100" height="110" viewBox="0 0 100 110" fill="none" xmlns="http://www.w3.org/2000/svg">
<path d="M44.25 51C43.4722 51 42.7917 50.7723 42.2083 50.3169C41.625 49.8615 41.2361 49.2721 41.0417 48.5488L39.1667 41.3558H60.8333L58.9583 48.5488C58.7639 49.2721 58.375 49.8615 57.7917 50.3169C57.2083 50.7723 56.5278 51 55.75 51H44.25ZM50 28.4969C50 26.0858 50.8472 23.9962 52.5417 22.2281C54.2361 20.46 56.3472 19.3884 58.875 19.0134C59.0139 18.9866 59.1389 19 59.25 19.0536C59.3611 19.1072 59.4722 19.1741 59.5833 19.2545C59.6944 19.3349 59.7711 19.4351 59.8133 19.5551C59.8556 19.6751 59.8622 19.8026 59.8333 19.9376C59.5278 22.054 58.6322 23.8955 57.1467 25.4622C55.6611 27.0288 53.4178 27.9868 51.25 28.3361V31.7116H63.3333C63.8055 31.7116 64.2017 31.8659 64.5217 32.1745C64.8417 32.4831 65.0011 32.8646 65 33.319V36.5337C65 37.4177 64.6739 38.1748 64.0217 38.8049C63.3694 39.435 62.5844 39.7495 61.6667 39.7484H38.3333C37.4167 39.7484 36.6322 39.4339 35.98 38.8049C35.3278 38.1759 35.0011 37.4188 35 36.5337V33.319C35 32.8635 35.16 32.4821 35.48 32.1745C35.8 31.867 36.1956 31.7127 36.6667 31.7116H48.75V28.3361C46.5833 27.9879 44.3406 27.0304 42.855 25.4638C41.3694 23.8971 40.4733 22.0551 40.1667 19.9376C40.1389 19.8037 40.1461 19.6767 40.1883 19.5567C40.2306 19.4367 40.3067 19.3359 40.4167 19.2545C40.5267 19.1731 40.6378 19.1061 40.75 19.0536C40.8622 19.0011 40.9872 18.9877 41.125 19.0134C43.6528 19.3884 45.7639 20.46 47.4583 22.2281C49.1528 23.9962 50 26.0858 50 28.4969Z" fill="white"/>
<path d="M44.25 51C43.4722 51 42.7917 50.7723 42.2083 50.3169C41.625 49.8615 41.2361 49.2721 41.0417 48.5488L39.1667 41.3558H60.8333L58.9583 48.5488C58.7639 49.2721 58.375 49.8615 57.7917 50.3169C57.2083 50.7723 56.5278 51 55.75 51H44.25ZM50 28.4969C50 26.0858 50.8472 23.9962 52.5417 22.2281C54.2361 20.46 56.3472 19.3884 58.875 19.0134C59.0139 18.9866 59.1389 19 59.25 19.0536C59.3611 19.1072 59.4722 19.1741 59.5833 19.2545C59.6944 19.3349 59.7711 19.4351 59.8133 19.5551C59.8556 19.6751 59.8622 19.8026 59.8333 19.9376C59.5278 22.054 58.6322 23.8955 57.1467 25.4622C55.6611 27.0288 53.4178 27.9868 51.25 28.3361V31.7116H63.3333C63.8055 31.7116 64.2017 31.8659 64.5217 32.1745C64.8417 32.4831 65.0011 32.8646 65 33.319V36.5337C65 37.4177 64.6739 38.1748 64.0217 38.8049C63.3694 39.435 62.5844 39.7495 61.6667 39.7484H38.3333C37.4167 39.7484 36.6322 39.4339 35.98 38.8049C35.3278 38.1759 35.0011 37.4188 35 36.5337V33.319C35 32.8635 35.16 32.4821 35.48 32.1745C35.8 31.867 36.1956 31.7127 36.6667 31.7116H48.75V28.3361C46.5833 27.9879 44.3406 27.0304 42.855 25.4638C41.3694 23.8971 40.4733 22.0551 40.1667 19.9376C40.1389 19.8037 40.1461 19.6767 40.1883 19.5567C40.2306 19.4367 40.3067 19.3359 40.4167 19.2545C40.5267 19.1731 40.6378 19.1061 40.75 19.0536C40.8622 19.0011 40.9872 18.9877 41.125 19.0134C43.6528 19.3884 45.7639 20.46 47.4583 22.2281C49.1528 23.9962 50 26.0858 50 28.4969Z" fill="url(#paint0_linear_76_1132)"/>
<path fill-rule="evenodd" clip-rule="evenodd" d="M51 44.375C51 46.8614 51.9877 49.246 53.7459 51.0041C55.504 52.7623 57.8886 53.75 60.375 53.75C62.8614 53.75 65.246 52.7623 67.0041 51.0041C68.7623 49.246 69.75 46.8614 69.75 44.375C69.75 41.8886 68.7623 39.504 67.0041 37.7459C65.246 35.9877 62.8614 35 60.375 35C57.8886 35 55.504 35.9877 53.7459 37.7459C51.9877 39.504 51 41.8886 51 44.375Z" fill="#3CAC5C"/>
<path d="M62.8799 41.0812C63.2005 40.9351 63.5776 40.989 63.8438 41.2199L66.7256 43.7199C66.9224 43.8908 67.0351 44.139 67.0352 44.3996C67.0352 44.6602 66.9223 44.9084 66.7256 45.0793L63.8438 47.5793C63.5776 47.8102 63.2005 47.8642 62.8799 47.718C62.5595 47.5715 62.3535 47.2519 62.3535 46.8996V45.3H55.0898C54.5928 45.3 54.1895 44.8967 54.1895 44.3996C54.1896 43.9026 54.5929 43.4992 55.0898 43.4992H62.3535V41.8996C62.3536 41.5474 62.5596 41.2276 62.8799 41.0812Z" fill="white"/>
<path d="M34.5035 69.269H38.2215V71.973H35.7255V72.974C36.9735 72.974 37.6495 72.935 38.4815 72.792L38.5855 73.702C37.6105 73.897 36.8305 73.91 35.1535 73.91H34.5295V71.102H37.0255V70.192H34.5035V69.269ZM38.9105 69.269H42.6415V73.91H38.9105V69.269ZM41.5625 70.192H39.9895V72.974H41.5625V70.192ZM33.4245 67.462H37.9615V66.682C35.7905 66.565 34.5295 65.85 34.5295 64.654C34.5295 63.354 36.0505 62.639 38.6245 62.639C41.1855 62.639 42.7195 63.354 42.7195 64.654C42.7195 65.863 41.4325 66.565 39.2485 66.682V67.462H43.8115V68.476H33.4245V67.462ZM38.6245 63.588C36.8305 63.588 35.8425 63.965 35.8425 64.654C35.8425 65.356 36.8305 65.733 38.6245 65.733C40.4055 65.733 41.3935 65.356 41.3935 64.654C41.3935 63.965 40.4055 63.588 38.6245 63.588ZM52.9898 62.509H54.2638V74.014H52.9898V62.509ZM50.8708 63.718C50.8708 67.124 49.4928 70.023 45.5408 71.947L44.8778 70.933C47.9068 69.477 49.3238 67.436 49.5578 64.758H45.4238V63.718H50.8708ZM64.3522 62.509H65.6262V74.014H64.3522V62.509ZM62.2332 63.718C62.2332 67.124 60.8552 70.023 56.9032 71.947L56.2402 70.933C59.2692 69.477 60.6862 67.436 60.9202 64.758H56.7862V63.718H62.2332Z" fill="#3CAC5C"/>
<defs>
<linearGradient id="paint0_linear_76_1132" x1="50" y1="19" x2="50" y2="51" gradientUnits="userSpaceOnUse">
<stop stop-color="#3CAC5C"/>
<stop offset="0.395955" stop-color="#3CAC5C"/>
<stop offset="0.397525" stop-color="#ED4D85"/>
<stop offset="1" stop-color="#ED4D85"/>
</linearGradient>
</defs>
</svg>
