<svg width="24" height="24" viewBox="0 0 24 24" fill="none" xmlns="http://www.w3.org/2000/svg">
<path fill-rule="evenodd" clip-rule="evenodd" d="M7.455 3.46409C7.48129 3.29632 7.54987 3.13802 7.65427 3.00409C7.75867 2.87017 7.89545 2.76503 8.05173 2.6986C8.20801 2.63217 8.37862 2.60663 8.5475 2.62438C8.71638 2.64214 8.87796 2.7026 9.017 2.80009L11.354 4.44009C11.5248 4.56012 11.7289 4.6237 11.9376 4.62191C12.1463 4.62011 12.3493 4.55304 12.518 4.43009L14.824 2.74809C14.9612 2.64805 15.1216 2.58461 15.2902 2.56374C15.4587 2.54286 15.6297 2.56525 15.7872 2.62878C15.9447 2.69231 16.0834 2.79489 16.1903 2.92686C16.2971 3.05883 16.3686 3.21584 16.398 3.38309L16.89 6.19509C16.9259 6.40085 17.0254 6.5902 17.1745 6.73655C17.3235 6.88289 17.5146 6.9789 17.721 7.01109L20.541 7.45209C20.7089 7.47829 20.8674 7.54686 21.0015 7.65133C21.1355 7.75579 21.2408 7.8927 21.3072 8.04912C21.3737 8.20555 21.3992 8.37633 21.3813 8.54535C21.3634 8.71436 21.3027 8.87603 21.205 9.01509L19.565 11.3511C19.445 11.5219 19.3814 11.7259 19.3832 11.9347C19.385 12.1434 19.4521 12.3464 19.575 12.5151L21.258 14.8221C21.358 14.9593 21.4215 15.1197 21.4424 15.2883C21.4632 15.4568 21.4408 15.6278 21.3773 15.7853C21.3138 15.9428 21.2112 16.0815 21.0792 16.1883C20.9473 16.2952 20.7902 16.3667 20.623 16.3961L17.811 16.8881C17.6054 16.924 17.4161 17.0233 17.2698 17.1721C17.1235 17.321 17.0274 17.5119 16.995 17.7181L16.554 20.5391C16.5278 20.707 16.4592 20.8655 16.3548 20.9996C16.2503 21.1336 16.1134 21.2388 15.957 21.3053C15.8005 21.3717 15.6298 21.3972 15.4607 21.3794C15.2917 21.3615 15.1301 21.3008 14.991 21.2031L12.655 19.5631C12.4842 19.4431 12.2801 19.3795 12.0714 19.3813C11.8627 19.3831 11.6597 19.4501 11.491 19.5731L9.184 21.2561C9.04672 21.3561 8.88621 21.4196 8.71762 21.4404C8.54904 21.4612 8.37792 21.4387 8.22043 21.3751C8.06293 21.3114 7.92424 21.2087 7.81744 21.0766C7.71064 20.9445 7.63925 20.7874 7.61 20.6201L7.118 17.8081C7.08212 17.6025 6.9828 17.4132 6.83395 17.2669C6.68511 17.1206 6.49421 17.0245 6.288 16.9921L3.467 16.5521C3.29908 16.5259 3.1406 16.4573 3.00654 16.3528C2.87248 16.2484 2.76725 16.1115 2.7008 15.955C2.63434 15.7986 2.60885 15.6278 2.62674 15.4588C2.64462 15.2898 2.70528 15.1281 2.803 14.9891L4.443 12.6521C4.56304 12.4813 4.62661 12.2772 4.62482 12.0685C4.62303 11.8597 4.55595 11.6568 4.433 11.4881L2.75 9.18209C2.64996 9.0448 2.58654 8.8843 2.56572 8.71571C2.5449 8.54712 2.56737 8.37601 2.63101 8.21851C2.69465 8.06102 2.79736 7.92233 2.92945 7.81553C3.06155 7.70873 3.21867 7.63733 3.386 7.60809L6.198 7.11509C6.40344 7.07902 6.59246 6.97961 6.7386 6.83078C6.88474 6.68195 6.98068 6.49115 7.013 6.28509L7.455 3.46409ZM12 17.0001C13.3261 17.0001 14.5979 16.4733 15.5355 15.5356C16.4732 14.5979 17 13.3262 17 12.0001C17 10.674 16.4732 9.40223 15.5355 8.46455C14.5979 7.52687 13.3261 7.00009 12 7.00009C10.6739 7.00009 9.40215 7.52687 8.46447 8.46455C7.52679 9.40223 7 10.674 7 12.0001C7 13.3262 7.52679 14.5979 8.46447 15.5356C9.40215 16.4733 10.6739 17.0001 12 17.0001Z" fill="#3CAC5C"/>
<path fill-rule="evenodd" clip-rule="evenodd" d="M15.6 11.9999C15.6 12.9547 15.2207 13.8704 14.5456 14.5455C13.8704 15.2206 12.9548 15.5999 12 15.5999C11.0452 15.5999 10.1295 15.2206 9.45439 14.5455C8.77926 13.8704 8.39998 12.9547 8.39998 11.9999C8.39998 11.0451 8.77926 10.1294 9.45439 9.45432C10.1295 8.77919 11.0452 8.3999 12 8.3999C12.9548 8.3999 13.8704 8.77919 14.5456 9.45432C15.2207 10.1294 15.6 11.0451 15.6 11.9999Z" fill="#3CAC5C"/>
</svg>
