<svg width="100" height="110" viewBox="0 0 100 110" fill="none" xmlns="http://www.w3.org/2000/svg">
<rect width="100" height="110" fill="#E7F5EA"/>
<path d="M50 34L50 23" stroke="#3CAC5C" stroke-width="2" stroke-linecap="round"/>
<path d="M42.2083 51.6053C42.7917 52.0607 43.4722 52.2884 44.25 52.2884H55.75C56.5278 52.2884 57.2083 52.0607 57.7917 51.6053C58.375 51.1499 58.7639 50.5605 58.9583 49.8372L60.8333 42.6442H39.1667L41.0417 49.8372C41.2361 50.5605 41.625 51.1499 42.2083 51.6053Z" fill="#ED4D85"/>
<path d="M64.5217 33.4629C64.2017 33.1543 63.8056 33 63.3333 33H36.6667C36.1956 33.0011 35.8 33.1554 35.48 33.4629C35.16 33.7705 35 34.1519 35 34.6074V37.8221C35.0011 38.7072 35.3278 39.4643 35.98 40.0933C36.6322 40.7223 37.4167 41.0368 38.3333 41.0368H61.6667C62.5844 41.0379 63.3694 40.7234 64.0217 40.0933C64.6739 39.4632 65 38.7062 65 37.8221V34.6074C65.0011 34.153 64.8417 33.7715 64.5217 33.4629Z" fill="#ED4D85"/>
<path d="M50 20L45 27L55 27L50 20Z" fill="#3CAC5C" stroke="#3CAC5C" stroke-width="1.8" stroke-linecap="round" stroke-linejoin="round"/>
<path d="M32.8914 69.737C35.3484 69.737 36.9344 70.543 36.9344 71.882C36.9344 73.208 35.3484 74.014 32.8914 74.014C30.4344 74.014 28.8614 73.208 28.8614 71.882C28.8614 70.543 30.4344 69.737 32.8914 69.737ZM32.8914 70.712C31.1754 70.712 30.1354 71.141 30.1354 71.882C30.1354 72.61 31.1754 73.026 32.8914 73.026C34.6074 73.026 35.6604 72.61 35.6604 71.882C35.6604 71.141 34.6074 70.712 32.8914 70.712ZM28.9654 63.068H36.8434V64.043C36.8434 64.966 36.8434 65.902 36.5314 67.098L35.2704 66.955C35.5694 65.798 35.5694 64.966 35.5694 64.095H28.9654V63.068ZM27.7564 67.787H31.8644V65.655H33.1254V67.787H38.1304V68.814H27.7564V67.787ZM39.1057 68.996H49.5317V70.049H46.9187V74.014H45.6187V70.049H42.9667V74.014H41.6537V70.049H39.1057V68.996ZM44.2797 62.964C46.7107 62.964 48.3617 63.926 48.3617 65.473C48.3617 67.033 46.7107 68.008 44.2797 68.008C41.8617 68.008 40.2107 67.033 40.2107 65.473C40.2107 63.926 41.8617 62.964 44.2797 62.964ZM44.2797 63.978C42.6157 63.978 41.5237 64.55 41.5237 65.473C41.5237 66.422 42.6157 66.981 44.2797 66.981C45.9567 66.981 47.0617 66.422 47.0617 65.473C47.0617 64.55 45.9567 63.978 44.2797 63.978ZM58.112 62.509H59.386V67.15H61.18V68.216H59.386V74.014H58.112V62.509ZM50.403 64.29H53.172V62.665H54.459V64.29H57.176V65.33H50.403V64.29ZM53.822 66.175C55.473 66.175 56.669 67.267 56.669 68.853C56.669 70.426 55.473 71.531 53.822 71.531C52.197 71.531 50.975 70.426 50.975 68.853C50.975 67.267 52.197 66.175 53.822 66.175ZM53.822 67.215C52.873 67.215 52.21 67.865 52.21 68.853C52.21 69.828 52.873 70.478 53.822 70.478C54.758 70.478 55.447 69.828 55.447 68.853C55.447 67.865 54.758 67.215 53.822 67.215ZM70.0333 62.509H71.3073V74.014H70.0333V62.509ZM67.9143 63.718C67.9143 67.124 66.5363 70.023 62.5843 71.947L61.9213 70.933C64.9503 69.477 66.3673 67.436 66.6013 64.758H62.4673V63.718H67.9143Z" fill="#3CAC5C"/>
</svg>
