<svg width="102" height="24" viewBox="0 0 102 24" fill="none" xmlns="http://www.w3.org/2000/svg">
<path d="M9.75421 8.59484C8.58449 9.79705 7.99963 11.2178 7.99963 12.8572C7.99963 11.2178 7.41477 9.79705 6.24505 8.59484C5.07533 7.39263 3.61797 6.66402 1.87298 6.40901C1.77786 6.39152 1.69157 6.40063 1.6141 6.43633C1.53663 6.47203 1.45993 6.51757 1.38399 6.57295C1.30806 6.62832 1.25552 6.69681 1.22637 6.77842C1.19722 6.86002 1.19224 6.94636 1.21141 7.03744C1.42311 8.47717 2.04172 9.72965 3.06724 10.7949C4.09276 11.8601 5.81359 12.5111 7.3093 12.7479V17.9999H8.68996V12.7479C10.1864 12.5104 11.9076 11.859 12.9332 10.7938C13.9587 9.72856 14.5769 8.47644 14.7878 7.03744C14.8078 6.94563 14.8032 6.85893 14.774 6.77732C14.7449 6.69572 14.692 6.62759 14.6153 6.57295C14.5386 6.5183 14.4619 6.47276 14.3852 6.43633C14.3084 6.3999 14.2222 6.39079 14.1263 6.40901C12.3813 6.66402 10.9239 7.39263 9.75421 8.59484Z" fill="#E0E0E0"/>
<path d="M35.6791 9.20288H32.6583V18.265H35.6791V9.20288Z" fill="#E0E0E0"/>
<path d="M29.2217 8.1241C28.9786 8.1241 28.7774 7.93496 28.8166 7.70546C28.9211 7.09952 29.2475 6.54869 29.7378 6.15116C30.2281 5.75362 30.8504 5.53523 31.4936 5.53491C32.9907 5.53491 34.2059 6.6908 34.2059 8.1241H29.2217ZM34.2059 8.1241H39.1901C39.4332 8.1241 39.6339 7.93496 39.5952 7.70546C39.4912 7.09934 39.1648 6.54826 38.6744 6.15066C38.184 5.75305 37.5616 5.53481 36.9182 5.53491C35.4211 5.53491 34.2059 6.695 34.2059 8.1241Z" fill="#E0E0E0"/>
<path d="M33.7566 8.56852C33.9794 8.71038 34.2712 8.71038 34.494 8.56852C35.1315 8.16281 35.8883 7.98689 36.6394 8.06987C37.3905 8.15286 38.0907 8.48977 38.6243 9.02486C39.1804 9.58268 39.5208 10.3197 39.5847 11.1048C39.6486 11.8899 39.4319 12.6723 38.9733 13.3127C38.7996 13.5543 38.4533 13.5522 38.2429 13.3418L34.5069 9.60581C34.4058 9.50469 34.2686 9.44788 34.1255 9.44788C33.9825 9.44788 33.8453 9.50469 33.7442 9.60581L30.0082 13.3418C29.7978 13.5522 29.4515 13.5543 29.2773 13.3127C28.8166 12.673 28.5987 11.8901 28.6628 11.1044C28.7268 10.3187 29.0686 9.58149 29.6268 9.02486C30.1616 8.49209 30.8615 8.15677 31.6118 8.07386C32.3621 7.99095 33.1184 8.16536 33.7566 8.56852Z" fill="#E0E0E0"/>
<rect x="31.8324" y="8.12402" width="4.74685" height="0.863063" fill="#E0E0E0"/>
<path d="M33.7312 9.28916C33.7312 9.59817 33.6084 9.89453 33.3899 10.113C33.1714 10.3315 32.875 10.4543 32.566 10.4543C32.257 10.4543 31.9606 10.3315 31.7421 10.113C31.5236 9.89453 31.4009 9.59817 31.4009 9.28916C31.4009 8.98015 31.5236 8.68379 31.7421 8.46528C31.9606 8.24678 32.257 8.12402 32.566 8.12402C32.875 8.12402 33.1714 8.24678 33.3899 8.46528C33.6084 8.68379 33.7312 8.98015 33.7312 9.28916ZM36.8921 10.2439C36.8921 10.5529 36.7694 10.8493 36.5509 11.0678C36.3324 11.2863 36.036 11.4091 35.727 11.4091C35.418 11.4091 35.1216 11.2863 34.9031 11.0678C34.6846 10.8493 34.5619 10.5529 34.5619 10.2439C34.5619 9.93491 34.6846 9.63855 34.9031 9.42005C35.1216 9.20154 35.418 9.07879 35.727 9.07879C36.036 9.07879 36.3324 9.20154 36.5509 9.42005C36.7694 9.63855 36.8921 9.93491 36.8921 10.2439Z" fill="white"/>
<path d="M72.6962 12.5672C72.4379 12.5672 72.1871 12.5992 71.9471 12.6584C72.002 12.4203 72.0298 12.1767 72.0299 11.9323C72.0299 10.1453 70.5813 8.69665 68.7942 8.69665C68.1419 8.69574 67.5047 8.89296 66.9669 9.2622C66.3599 6.92356 64.2348 5.19678 61.7064 5.19678C58.7049 5.19678 56.2717 7.62996 56.2717 10.6314C54.0151 10.6314 52.1857 12.4608 52.1857 14.7174C52.1857 16.974 54.0151 18.8034 56.2717 18.8034H72.6962C74.4183 18.8034 75.8143 17.4074 75.8143 15.6853C75.8143 13.9632 74.4183 12.5672 72.6962 12.5672Z" fill="#3CAC5C"/>
<path fill-rule="evenodd" clip-rule="evenodd" d="M90.97 6.30915C90.9875 6.1973 91.0332 6.09177 91.1028 6.00248C91.1724 5.9132 91.2636 5.84311 91.3678 5.79882C91.472 5.75454 91.5857 5.73751 91.6983 5.74934C91.8109 5.76118 91.9186 5.80149 92.0113 5.86648L93.5693 6.95981C93.6832 7.03984 93.8192 7.08222 93.9584 7.08103C94.0976 7.07983 94.2329 7.03511 94.3453 6.95315L95.8827 5.83181C95.9741 5.76512 96.0811 5.72283 96.1934 5.70891C96.3058 5.695 96.4198 5.70992 96.5248 5.75227C96.6298 5.79463 96.7223 5.86302 96.7935 5.951C96.8647 6.03898 96.9124 6.14365 96.932 6.25515L97.26 8.12981C97.284 8.26699 97.3503 8.39322 97.4496 8.49079C97.549 8.58835 97.6764 8.65236 97.814 8.67381L99.694 8.96781C99.806 8.98528 99.9116 9.031 100.001 9.10064C100.09 9.17028 100.161 9.26155 100.205 9.36584C100.249 9.47012 100.266 9.58398 100.254 9.69665C100.242 9.80933 100.202 9.91711 100.137 10.0098L99.0433 11.5671C98.9633 11.681 98.9209 11.8171 98.9221 11.9562C98.9233 12.0954 98.968 12.2307 99.05 12.3431L100.172 13.8811C100.239 13.9726 100.281 14.0796 100.295 14.1919C100.309 14.3043 100.294 14.4183 100.252 14.5233C100.209 14.6283 100.141 14.7207 100.053 14.792C99.9648 14.8632 99.8602 14.9109 99.7487 14.9305L97.874 15.2585C97.7369 15.2824 97.6108 15.3486 97.5132 15.4478C97.4156 15.5471 97.3516 15.6743 97.33 15.8118L97.036 17.6925C97.0185 17.8044 96.9728 17.9101 96.9032 17.9995C96.8335 18.0888 96.7423 18.159 96.638 18.2033C96.5337 18.2476 96.4198 18.2646 96.3072 18.2527C96.1945 18.2407 96.0867 18.2003 95.994 18.1351L94.4367 17.0418C94.3228 16.9618 94.1868 16.9194 94.0476 16.9206C93.9084 16.9218 93.7731 16.9665 93.6607 17.0485L92.1227 18.1705C92.0311 18.2372 91.9241 18.2795 91.8117 18.2933C91.6994 18.3072 91.5853 18.2922 91.4803 18.2498C91.3753 18.2074 91.2828 18.1389 91.2116 18.0508C91.1404 17.9628 91.0928 17.858 91.0733 17.7465L90.7453 15.8718C90.7214 15.7347 90.6552 15.6086 90.556 15.511C90.4567 15.4135 90.3295 15.3494 90.192 15.3278L88.3113 15.0345C88.1994 15.017 88.0937 14.9713 88.0044 14.9017C87.915 14.832 87.8448 14.7407 87.8005 14.6365C87.7562 14.5322 87.7392 14.4183 87.7512 14.3056C87.7631 14.193 87.8035 14.0852 87.8687 13.9925L88.962 12.4345C89.042 12.3206 89.0844 12.1846 89.0832 12.0454C89.082 11.9062 89.0373 11.7709 88.9553 11.6585L87.8333 10.1211C87.7666 10.0296 87.7244 9.92262 87.7105 9.81023C87.6966 9.69784 87.7116 9.58376 87.754 9.47876C87.7964 9.37377 87.8649 9.28131 87.953 9.21011C88.041 9.13891 88.1458 9.09131 88.2573 9.07181L90.132 8.74315C90.269 8.7191 90.395 8.65283 90.4924 8.55361C90.5898 8.45439 90.6538 8.32719 90.6753 8.18981L90.97 6.30915ZM94 15.3331C94.8841 15.3331 95.7319 14.982 96.357 14.3568C96.9821 13.7317 97.3333 12.8839 97.3333 11.9998C97.3333 11.1158 96.9821 10.2679 96.357 9.64279C95.7319 9.01767 94.8841 8.66648 94 8.66648C93.1159 8.66648 92.2681 9.01767 91.643 9.64279C91.0179 10.2679 90.6667 11.1158 90.6667 11.9998C90.6667 12.8839 91.0179 13.7317 91.643 14.3568C92.2681 14.982 93.1159 15.3331 94 15.3331Z" fill="#E0E0E0"/>
<path fill-rule="evenodd" clip-rule="evenodd" d="M96.4 12.0001C96.4 12.6366 96.1471 13.2471 95.697 13.6972C95.247 14.1472 94.6365 14.4001 94 14.4001C93.3635 14.4001 92.753 14.1472 92.3029 13.6972C91.8528 13.2471 91.6 12.6366 91.6 12.0001C91.6 11.3636 91.8528 10.7531 92.3029 10.303C92.753 9.85295 93.3635 9.6001 94 9.6001C94.6365 9.6001 95.247 9.85295 95.697 10.303C96.1471 10.7531 96.4 11.3636 96.4 12.0001Z" fill="#E0E0E0"/>
</svg>
