<svg width="100" height="110" viewBox="0 0 100 110" fill="none" xmlns="http://www.w3.org/2000/svg">
<rect width="100" height="110" fill="#E7F5EA"/>
<path d="M67.5 36C67.5 45.665 59.665 53.5 50 53.5C40.335 53.5 32.5 45.665 32.5 36C32.5 26.335 40.335 18.5 50 18.5C59.665 18.5 67.5 26.335 67.5 36Z" fill="#3CAC5C"/>
<path d="M58.3838 31.8838C58.6115 31.648 58.7375 31.3323 58.7346 31.0045C58.7318 30.6768 58.6003 30.3633 58.3685 30.1315C58.1368 29.8997 57.8233 29.7683 57.4955 29.7654C57.1678 29.7626 56.852 29.8886 56.6163 30.1163L48.125 38.6075L44.0088 34.4913C43.773 34.2636 43.4573 34.1376 43.1295 34.1404C42.8018 34.1433 42.4883 34.2747 42.2565 34.5065C42.0247 34.7383 41.8933 35.0518 41.8904 35.3795C41.8876 35.7073 42.0136 36.023 42.2413 36.2588L47.2413 41.2588C47.4757 41.4931 47.7936 41.6248 48.125 41.6248C48.4565 41.6248 48.7744 41.4931 49.0088 41.2588L58.3838 31.8838Z" fill="white"/>
<path d="M33.6324 65.109H35.9854V62.522H37.2594V71.076H35.9854V66.162H33.6324V65.109ZM30.5254 63.198H31.7994V64.576C31.7994 66.149 32.8004 67.644 34.5034 68.268L33.8274 69.243C32.5794 68.762 31.6694 67.826 31.1884 66.656C30.6944 67.969 29.7324 69.009 28.3804 69.529L27.7174 68.515C29.4854 67.878 30.5254 66.266 30.5254 64.563V63.198ZM29.7714 70.153H31.0584V72.74H37.5194V73.78H29.7714V70.153ZM39.5607 63.315H44.0197V64.355H40.7827V65.603H43.9027V66.578H40.7827V67.917C42.2647 67.904 43.2527 67.852 44.4097 67.644L44.5267 68.671C43.2137 68.918 42.1087 68.957 40.3147 68.957H39.5607V63.315ZM47.6207 62.509H48.8297V69.503H47.6207V66.487H46.3077V69.438H45.1117V62.73H46.3077V65.447H47.6207V62.509ZM41.0427 70.062H48.8297V74.014H47.5687V71.102H41.0427V70.062ZM53.926 63.016C55.59 63.016 56.773 63.926 56.773 65.304C56.773 66.474 55.902 67.332 54.589 67.54V68.554C55.59 68.502 56.578 68.411 57.501 68.281L57.592 69.204C55.226 69.646 52.548 69.672 50.598 69.672L50.442 68.645C51.287 68.645 52.275 68.645 53.315 68.606V67.553C51.976 67.345 51.079 66.5 51.079 65.304C51.079 63.926 52.262 63.016 53.926 63.016ZM53.926 63.978C52.938 63.978 52.275 64.511 52.275 65.304C52.275 66.123 52.938 66.63 53.926 66.63C54.914 66.63 55.577 66.123 55.577 65.304C55.577 64.511 54.914 63.978 53.926 63.978ZM58.177 62.522H59.451V66.292H61.063V67.345H59.451V71.297H58.177V62.522ZM52.041 70.556H53.328V72.727H59.854V73.767H52.041V70.556ZM61.8303 71.596H64.6383V69.581H63.0913V65.902H69.7473V64.329H63.0653V63.315H71.0083V66.903H64.3523V68.541H71.2683V69.581H69.5523V71.596H72.2563V72.636H61.8303V71.596ZM65.8993 71.596H68.3043V69.581H65.8993V71.596Z" fill="#3CAC5C"/>
</svg>
