<svg width="56" height="16" viewBox="0 0 56 16" fill="none" xmlns="http://www.w3.org/2000/svg">
<circle cx="7.5" cy="8.5" r="3.5" fill="#E0E0E0"/>
<circle cx="27.5" cy="8.5" r="3.5" fill="#E0E0E0"/>
<path d="M49.7542 4.59484C48.5844 5.79705 47.9996 7.21784 47.9996 8.85721C47.9996 7.21784 47.4147 5.79705 46.245 4.59484C45.0753 3.39263 43.6179 2.66402 41.8729 2.40901C41.7778 2.39152 41.6915 2.40063 41.6141 2.43633C41.5366 2.47203 41.4599 2.51757 41.3839 2.57295C41.308 2.62832 41.2555 2.69681 41.2263 2.77842C41.1972 2.86002 41.1922 2.94636 41.2114 3.03744C41.4231 4.47717 42.0417 5.72965 43.0672 6.79488C44.0927 7.86011 45.8135 8.51112 47.3093 8.74792V13.9999H48.6899V8.74792C50.1864 8.51039 51.9076 7.85901 52.9331 6.79379C53.9586 5.72856 54.5769 4.47644 54.7878 3.03744C54.8077 2.94563 54.8031 2.85893 54.774 2.77732C54.7448 2.69572 54.6919 2.62759 54.6152 2.57295C54.5385 2.5183 54.4618 2.47276 54.3851 2.43633C54.3084 2.3999 54.2221 2.39079 54.1262 2.40901C52.3812 2.66402 50.9239 3.39263 49.7542 4.59484Z" fill="#3CAC5C"/>
</svg>
