<svg width="40" height="40" viewBox="0 0 40 40" fill="none" xmlns="http://www.w3.org/2000/svg">
<path d="M30.0359 3.66661C30.4797 3.67542 30.869 3.84596 31.2029 4.17833L34.8562 7.83165C35.1901 8.16555 35.3609 8.55513 35.3689 8.99962C35.3769 9.444 35.2202 9.82665 34.8982 10.1471L32.6248 12.4205C31.9997 13.0455 31.2336 13.3502 30.3269 13.3346C29.5809 13.3217 28.9224 13.094 28.3513 12.652L17.7429 23.2604L21.1668 26.6842C21.9478 27.4652 21.9478 28.7313 21.1668 29.5123L20.2312 30.4488C11.898 38.6319 6.06423 32.7984 6.06423 32.7984C6.02189 32.7566 0.16134 26.9348 8.38161 18.6315L9.33181 17.6949C10.1154 16.9227 11.3755 16.9283 12.1521 17.7076L15.5974 21.1637L26.2547 10.5055C25.8978 9.9769 25.7131 9.37785 25.701 8.7086C25.6846 7.80273 25.9891 7.03639 26.614 6.40977L28.8875 4.13633C29.2094 3.81444 29.5923 3.65785 30.0359 3.66661Z" fill="white" fill-opacity="0.75"/>
</svg>
