<svg width="100" height="110" viewBox="0 0 100 110" fill="none" xmlns="http://www.w3.org/2000/svg">
<path d="M60 20H40C36.6863 20 34 22.6863 34 26V46C34 49.3137 36.6863 52 40 52H60C63.3137 52 66 49.3137 66 46V26C66 22.6863 63.3137 20 60 20Z" fill="#3CAC5C"/>
<path d="M43.7192 25.9165C43.7192 24.812 44.6147 23.9165 45.7192 23.9165H54.1926C55.2971 23.9165 56.1926 24.812 56.1926 25.9165V32.8307C56.1926 33.9353 55.2971 34.8307 54.1926 34.8307H45.7192C44.6147 34.8307 43.7192 33.9353 43.7192 32.8307V25.9165ZM43.7192 39.169C43.7192 38.0645 44.6147 37.169 45.7192 37.169H54.1926C55.2971 37.169 56.1926 38.0645 56.1926 39.169V46.0832C56.1926 47.1878 55.2971 48.0832 54.1926 48.0832H45.7192C44.6147 48.0832 43.7192 47.1878 43.7192 46.0832V39.169ZM58.9209 31.9324C58.9209 31.3801 59.3686 30.9324 59.9209 30.9324H61.0392C61.5915 30.9324 62.0392 31.3801 62.0392 31.9324V33.0507C62.0392 33.603 61.5915 34.0507 61.0392 34.0507H59.9209C59.3686 34.0507 58.9209 33.603 58.9209 33.0507V31.9324ZM58.9209 25.6957C58.9209 25.1434 59.3686 24.6957 59.9209 24.6957H61.0392C61.5915 24.6957 62.0392 25.1434 62.0392 25.6957V26.814C62.0392 27.3663 61.5915 27.814 61.0392 27.814H59.9209C59.3686 27.814 58.9209 27.3663 58.9209 26.814V25.6957ZM58.9209 38.949C58.9209 38.3967 59.3686 37.949 59.9209 37.949H61.0392C61.5915 37.949 62.0392 38.3967 62.0392 38.949V40.0674C62.0392 40.6196 61.5915 41.0674 61.0392 41.0674H59.9209C59.3686 41.0674 58.9209 40.6196 58.9209 40.0674V38.949ZM58.9209 45.1857C58.9209 44.6334 59.3686 44.1857 59.9209 44.1857H61.0392C61.5915 44.1857 62.0392 44.6334 62.0392 45.1857V46.304C62.0392 46.8563 61.5915 47.304 61.0392 47.304H59.9209C59.3686 47.304 58.9209 46.8563 58.9209 46.304V45.1857ZM37.9609 31.9324C37.9609 31.3801 38.4086 30.9324 38.9609 30.9324H40.0792C40.6315 30.9324 41.0792 31.3801 41.0792 31.9324V33.0507C41.0792 33.603 40.6315 34.0507 40.0792 34.0507H38.9609C38.4086 34.0507 37.9609 33.603 37.9609 33.0507V31.9324ZM37.9609 25.6957C37.9609 25.1434 38.4086 24.6957 38.9609 24.6957H40.0792C40.6315 24.6957 41.0792 25.1434 41.0792 25.6957V26.814C41.0792 27.3663 40.6315 27.814 40.0792 27.814H38.9609C38.4086 27.814 37.9609 27.3663 37.9609 26.814V25.6957ZM37.9609 38.949C37.9609 38.3967 38.4086 37.949 38.9609 37.949H40.0792C40.6315 37.949 41.0792 38.3967 41.0792 38.949V40.0674C41.0792 40.6196 40.6315 41.0674 40.0792 41.0674H38.9609C38.4086 41.0674 37.9609 40.6196 37.9609 40.0674V38.949ZM37.9609 45.1857C37.9609 44.6334 38.4086 44.1857 38.9609 44.1857H40.0792C40.6315 44.1857 41.0792 44.6334 41.0792 45.1857V46.304C41.0792 46.8563 40.6315 47.304 40.0792 47.304H38.9609C38.4086 47.304 37.9609 46.8563 37.9609 46.304V45.1857Z" fill="#E7F5EA"/>
<path d="M37.3159 66.9062C37.2567 66.5465 37.1234 66.2355 36.916 65.9731C36.7129 65.7108 36.4548 65.5119 36.1416 65.3765C35.8327 65.2368 35.492 65.167 35.1196 65.167C34.616 65.167 34.1696 65.2939 33.7803 65.5479C33.3952 65.7975 33.0926 66.1657 32.8726 66.6523C32.6567 67.139 32.5488 67.723 32.5488 68.4043C32.5488 69.0941 32.6567 69.6823 32.8726 70.1689C33.0926 70.6514 33.3952 71.0174 33.7803 71.2671C34.1696 71.5168 34.6139 71.6416 35.1133 71.6416C35.4814 71.6416 35.8179 71.576 36.1226 71.4448C36.4272 71.3094 36.6833 71.1147 36.8906 70.8608C37.1022 70.6069 37.244 70.3044 37.3159 69.9531L38.9854 69.9595C38.9007 70.5477 38.687 71.083 38.3442 71.5654C38.0015 72.0479 37.5508 72.4287 36.9922 72.708C36.4336 72.9873 35.8009 73.127 35.0942 73.127C34.286 73.127 33.5623 72.9386 32.9233 72.562C32.2886 72.1812 31.7913 71.6353 31.4316 70.9243C31.0719 70.2091 30.8921 69.3691 30.8921 68.4043C30.8921 67.431 31.0741 66.5889 31.438 65.8779C31.8019 65.167 32.2992 64.6232 32.9297 64.2466C33.5645 63.87 34.286 63.6816 35.0942 63.6816C35.7713 63.6816 36.387 63.8107 36.9414 64.0688C37.5 64.3228 37.9549 64.693 38.3062 65.1797C38.6616 65.6621 38.888 66.2376 38.9854 66.9062H37.3159ZM40.3374 66.1064H41.8989V67.2554H41.9751C42.0978 66.8576 42.3115 66.5508 42.6162 66.335C42.9209 66.1149 43.2721 66.0049 43.6699 66.0049C43.873 66.0049 44.0698 66.0197 44.2603 66.0493V67.541C44.1925 67.5114 44.0825 67.4881 43.9302 67.4712C43.7778 67.4543 43.6361 67.4458 43.5049 67.4458C43.2129 67.4458 42.9484 67.5093 42.7114 67.6362C42.4744 67.7632 42.2882 67.9409 42.1528 68.1694C42.0174 68.3937 41.9497 68.6519 41.9497 68.9438V73H40.3374V66.1064ZM48.0562 73.1333C47.3748 73.1333 46.7824 72.9894 46.2788 72.7017C45.7752 72.4139 45.3859 72.0034 45.1108 71.4702C44.84 70.937 44.7046 70.3128 44.7046 69.5977C44.7046 68.891 44.84 68.2668 45.1108 67.7251C45.3859 67.1792 45.7689 66.7581 46.2598 66.4619C46.7507 66.1657 47.3219 66.0176 47.9736 66.0176C48.5618 66.0176 49.0929 66.1424 49.5669 66.3921C50.0409 66.6418 50.4175 67.029 50.6968 67.5537C50.9761 68.0742 51.1157 68.7196 51.1157 69.4897V69.9976H45.4727V68.8994H49.5669C49.5669 68.5863 49.5013 68.307 49.3701 68.0615C49.2389 67.8161 49.0527 67.6235 48.8115 67.4839C48.5745 67.3442 48.3016 67.2744 47.9927 67.2744C47.6626 67.2744 47.3706 67.3527 47.1167 67.5093C46.8628 67.6659 46.6639 67.8774 46.52 68.144C46.3804 68.4064 46.3084 68.6942 46.3042 69.0073V69.9468C46.3042 70.3488 46.3761 70.6958 46.52 70.9878C46.6681 71.2756 46.8755 71.4956 47.1421 71.6479C47.4087 71.8003 47.7197 71.8765 48.0752 71.8765C48.3037 71.8765 48.509 71.8447 48.6909 71.7812C48.8771 71.7178 49.0358 71.6353 49.167 71.5337C49.2982 71.4279 49.3976 71.3031 49.4653 71.1592H51.0522C50.9549 71.5527 50.7708 71.8997 50.5 72.2002C50.2334 72.4964 49.8906 72.7271 49.4717 72.8921C49.0527 73.0529 48.5809 73.1333 48.0562 73.1333ZM56.4858 69.9468C56.342 69.951 56.0182 69.9701 55.5146 70.0039L54.8735 70.0547C54.4757 70.0885 54.1668 70.188 53.9468 70.353C53.7267 70.5181 53.6167 70.7487 53.6167 71.0449C53.6167 71.2354 53.6654 71.3983 53.7627 71.5337C53.86 71.6649 53.9976 71.7664 54.1753 71.8384C54.3573 71.9103 54.5604 71.9463 54.7847 71.9463C55.1063 71.9463 55.3877 71.8828 55.6289 71.7559C55.8743 71.6247 56.0627 71.4512 56.1938 71.2354C56.3293 71.0195 56.397 70.7826 56.397 70.5244L56.3843 68.3218C56.3843 68.0933 56.3377 67.8986 56.2446 67.7378C56.1515 67.577 56.0098 67.4564 55.8193 67.376C55.6331 67.2956 55.4046 67.2554 55.1338 67.2554C54.7868 67.2554 54.5011 67.3273 54.2769 67.4712C54.0568 67.6151 53.915 67.814 53.8516 68.0679H52.2773C52.3239 67.6743 52.4678 67.3231 52.709 67.0142C52.9544 66.701 53.2866 66.4577 53.7056 66.2842C54.1287 66.1064 54.6196 66.0176 55.1782 66.0176C55.6691 66.0176 56.124 66.0916 56.543 66.2397C56.9619 66.3879 57.3089 66.6396 57.584 66.9951C57.859 67.3464 57.9966 67.8097 57.9966 68.3853V73H56.4478V72.0479H56.397C56.2912 72.2552 56.1473 72.4393 55.9653 72.6001C55.7876 72.7609 55.5633 72.8921 55.2925 72.9937C55.0216 73.091 54.7127 73.1396 54.3657 73.1396C53.9214 73.1396 53.5257 73.0592 53.1787 72.8984C52.8317 72.7376 52.5566 72.5007 52.3535 72.1875C52.1546 71.8743 52.0552 71.4998 52.0552 71.064C52.0552 70.3446 52.2943 69.8283 52.7725 69.5151C53.2507 69.1978 53.8685 69.0158 54.626 68.9692C54.736 68.9565 55.1317 68.9354 55.813 68.9058L56.4731 68.8804L56.4858 69.9468ZM62.9541 67.3506H59.0059V66.1064H62.9541V67.3506ZM61.6021 64.4561V70.9307C61.6021 71.138 61.6338 71.3009 61.6973 71.4194C61.7607 71.5337 61.8454 71.6141 61.9512 71.6606C62.0612 71.703 62.1924 71.7262 62.3447 71.7305C62.5309 71.7347 62.7658 71.7241 63.0493 71.6987V73.0254C62.7869 73.0719 62.4823 73.0952 62.1353 73.0952C61.7205 73.0952 61.3503 73.0254 61.0244 72.8857C60.6986 72.7419 60.4425 72.5282 60.2563 72.2446C60.0701 71.9611 59.9792 71.6099 59.9834 71.1909V64.4561H61.6021ZM67.188 73.1333C66.5067 73.1333 65.9142 72.9894 65.4106 72.7017C64.9071 72.4139 64.5177 72.0034 64.2427 71.4702C63.9718 70.937 63.8364 70.3128 63.8364 69.5977C63.8364 68.891 63.9718 68.2668 64.2427 67.7251C64.5177 67.1792 64.9007 66.7581 65.3916 66.4619C65.8825 66.1657 66.4538 66.0176 67.1055 66.0176C67.6937 66.0176 68.2248 66.1424 68.6987 66.3921C69.1727 66.6418 69.5493 67.029 69.8286 67.5537C70.1079 68.0742 70.2476 68.7196 70.2476 69.4897V69.9976H64.6045V68.8994H68.6987C68.6987 68.5863 68.6331 68.307 68.502 68.0615C68.3708 67.8161 68.1846 67.6235 67.9434 67.4839C67.7064 67.3442 67.4334 67.2744 67.1245 67.2744C66.7944 67.2744 66.5024 67.3527 66.2485 67.5093C65.9946 67.6659 65.7957 67.8774 65.6519 68.144C65.5122 68.4064 65.4403 68.6942 65.436 69.0073V69.9468C65.436 70.3488 65.508 70.6958 65.6519 70.9878C65.8 71.2756 66.0073 71.4956 66.2739 71.6479C66.5405 71.8003 66.8516 71.8765 67.207 71.8765C67.4355 71.8765 67.6408 71.8447 67.8228 71.7812C68.009 71.7178 68.1676 71.6353 68.2988 71.5337C68.43 71.4279 68.5295 71.3031 68.5972 71.1592H70.1841C70.0868 71.5527 69.9027 71.8997 69.6318 72.2002C69.3652 72.4964 69.0225 72.7271 68.6035 72.8921C68.1846 73.0529 67.7127 73.1333 67.188 73.1333Z" fill="#3CAC5C"/>
</svg>
