<svg width="24" height="24" viewBox="0 0 24 24" fill="none" xmlns="http://www.w3.org/2000/svg">
<path d="M14.5186 7.80444H9.98751V21.3977H14.5186V7.80444Z" fill="#3CAC5C"/>
<path d="M4.83252 6.18603C4.46795 6.18603 4.16613 5.90231 4.22491 5.55807C4.38158 4.64916 4.87129 3.82291 5.60673 3.22661C6.34217 2.63031 7.27555 2.30272 8.24046 2.30225C10.486 2.30225 12.3088 4.03608 12.3088 6.18603H4.83252ZM12.3088 6.18603H19.7852C20.1497 6.18603 20.4509 5.90231 20.3928 5.55807C20.2367 4.64889 19.7472 3.82227 19.0116 3.22586C18.276 2.62945 17.3423 2.30209 16.3772 2.30225C14.1317 2.30225 12.3088 4.04238 12.3088 6.18603Z" fill="#3CAC5C"/>
<path d="M11.6349 6.85278C11.969 7.06557 12.4068 7.06557 12.7409 6.85278C13.6972 6.24421 14.8325 5.98034 15.9591 6.10481C17.0857 6.22929 18.1361 6.73465 18.9364 7.53729C19.7707 8.37401 20.2811 9.47952 20.377 10.6572C20.4728 11.8349 20.1479 13.0084 19.4599 13.969C19.1994 14.3315 18.6799 14.3283 18.3643 14.0127L12.7604 8.40872C12.6086 8.25703 12.4029 8.17182 12.1883 8.17182C11.9738 8.17182 11.768 8.25703 11.6163 8.40872L6.01228 14.0127C5.69673 14.3283 5.17727 14.3315 4.91592 13.969C4.22488 13.0095 3.89812 11.8352 3.99419 10.6566C4.09027 9.47807 4.6029 8.37224 5.44024 7.53729C6.24242 6.73813 7.29227 6.23515 8.41774 6.11078C9.54322 5.98642 10.6776 6.24804 11.6349 6.85278Z" fill="#3CAC5C"/>
<rect x="8.74862" y="6.18604" width="7.12027" height="1.2946" fill="#3CAC5C"/>
<path d="M11.5967 7.93374C11.5967 8.39726 11.4126 8.84179 11.0848 9.16955C10.7571 9.49731 10.3125 9.68144 9.84902 9.68144C9.3855 9.68144 8.94097 9.49731 8.61321 9.16955C8.28545 8.84179 8.10132 8.39726 8.10132 7.93374C8.10132 7.47022 8.28545 7.02568 8.61321 6.69793C8.94097 6.37017 9.3855 6.18604 9.84902 6.18604C10.3125 6.18604 10.7571 6.37017 11.0848 6.69793C11.4126 7.02568 11.5967 7.47022 11.5967 7.93374ZM16.3382 9.36589C16.3382 9.8294 16.1541 10.2739 15.8263 10.6017C15.4985 10.9295 15.054 11.1136 14.5905 11.1136C14.127 11.1136 13.6824 10.9295 13.3547 10.6017C13.0269 10.2739 12.8428 9.8294 12.8428 9.36589C12.8428 8.90236 13.0269 8.45783 13.3547 8.13007C13.6824 7.80231 14.127 7.61818 14.5905 7.61818C15.054 7.61818 15.4985 7.80231 15.8263 8.13007C16.1541 8.45783 16.3382 8.90236 16.3382 9.36589Z" fill="white"/>
</svg>
