<svg width="56" height="16" viewBox="0 0 56 16" fill="none" xmlns="http://www.w3.org/2000/svg">
<circle cx="7.5" cy="8.5" r="3.5" fill="#E0E0E0"/>
<path d="M29.7542 4.59484C28.5845 5.79705 27.9996 7.21784 27.9996 8.85721C27.9996 7.21784 27.4148 5.79705 26.2451 4.59484C25.0753 3.39263 23.618 2.66402 21.873 2.40901C21.7779 2.39152 21.6916 2.40063 21.6141 2.43633C21.5366 2.47203 21.4599 2.51757 21.384 2.57295C21.3081 2.62832 21.2555 2.69681 21.2264 2.77842C21.1972 2.86002 21.1923 2.94636 21.2114 3.03744C21.4231 4.47717 22.0417 5.72965 23.0673 6.79488C24.0928 7.86011 25.8136 8.51112 27.3093 8.74792V13.9999H28.69V8.74792C30.1864 8.51039 31.9077 7.85901 32.9332 6.79379C33.9587 5.72856 34.5769 4.47644 34.7879 3.03744C34.8078 2.94563 34.8032 2.85893 34.7741 2.77732C34.7449 2.69572 34.692 2.62759 34.6153 2.57295C34.5386 2.5183 34.4619 2.47276 34.3852 2.43633C34.3085 2.3999 34.2222 2.39079 34.1263 2.40901C32.3813 2.66402 30.9239 3.39263 29.7542 4.59484Z" fill="#3CAC5C"/>
<circle cx="47.5" cy="8.5" r="3.5" fill="#E0E0E0"/>
</svg>
