<svg width="40" height="40" viewBox="0 0 40 40" fill="none" xmlns="http://www.w3.org/2000/svg">
<path d="M3.33337 13.75C3.33337 12.3135 3.90406 10.9357 4.91988 9.91988C5.9357 8.90406 7.31345 8.33337 8.75004 8.33337H13C13 8.33337 13.5443 5.51704 13.8867 5.00337C14.2291 4.48971 14.6931 4.06852 15.2373 3.77719C15.7816 3.48587 16.3894 3.33342 17.0067 3.33337H22.9934C23.6107 3.33342 24.2185 3.48587 24.7628 3.77719C25.307 4.06852 25.771 4.48971 26.1134 5.00337C26.4558 5.51704 27 8.33337 27 8.33337H31.25C31.9614 8.33337 32.6657 8.47348 33.3229 8.74569C33.9801 9.01791 34.5772 9.41689 35.0802 9.91988C35.5832 10.4229 35.9822 11.02 36.2544 11.6772C36.5266 12.3344 36.6667 13.0387 36.6667 13.75V29.5834C36.6667 30.2947 36.5266 30.9991 36.2544 31.6562C35.9822 32.3134 35.5832 32.9106 35.0802 33.4135C34.5772 33.9165 33.9801 34.3155 33.3229 34.5877C32.6657 34.8599 31.9614 35 31.25 35H8.75004C7.31345 35 5.9357 34.4294 4.91988 33.4135C3.90406 32.3977 3.33337 31.02 3.33337 29.5834V13.75Z" fill="white"/>
<path fill-rule="evenodd" clip-rule="evenodd" d="M20 28.3334C21.9891 28.3334 23.8968 27.5432 25.3033 26.1367C26.7098 24.7302 27.5 22.8225 27.5 20.8334C27.5 18.8443 26.7098 16.9366 25.3033 15.5301C23.8968 14.1236 21.9891 13.3334 20 13.3334C18.0109 13.3334 16.1032 14.1236 14.6967 15.5301C13.2902 16.9366 12.5 18.8443 12.5 20.8334C12.5 22.8225 13.2902 24.7302 14.6967 26.1367C16.1032 27.5432 18.0109 28.3334 20 28.3334Z" fill="#3CAC5C"/>
<path d="M25 20.8334C25 22.1595 24.4732 23.4312 23.5355 24.3689C22.5979 25.3066 21.3261 25.8334 20 25.8334C18.6739 25.8334 17.4021 25.3066 16.4645 24.3689C15.5268 23.4312 15 22.1595 15 20.8334C15 19.5073 15.5268 18.2355 16.4645 17.2978C17.4021 16.3602 18.6739 15.8334 20 15.8334C21.3261 15.8334 22.5979 16.3602 23.5355 17.2978C24.4732 18.2355 25 19.5073 25 20.8334Z" fill="white"/>
<path d="M30.8334 16.6667C31.4964 16.6667 32.1323 16.4034 32.6011 15.9345C33.07 15.4657 33.3334 14.8298 33.3334 14.1667C33.3334 13.5037 33.07 12.8678 32.6011 12.399C32.1323 11.9301 31.4964 11.6667 30.8334 11.6667C30.1703 11.6667 29.5344 11.9301 29.0656 12.399C28.5968 12.8678 28.3334 13.5037 28.3334 14.1667C28.3334 14.8298 28.5968 15.4657 29.0656 15.9345C29.5344 16.4034 30.1703 16.6667 30.8334 16.6667Z" fill="#3CAC5C"/>
</svg>
