<svg width="16" height="16" viewBox="0 0 16 16" fill="none" xmlns="http://www.w3.org/2000/svg">
<path d="M13.7974 8.37798C13.6252 8.37798 13.4581 8.39929 13.2981 8.43876C13.3346 8.28001 13.3532 8.11764 13.3533 7.95473C13.3533 6.76339 12.3875 5.79761 11.1962 5.79761C10.7613 5.797 10.3364 5.92847 9.97794 6.17464C9.57328 4.61554 8.15656 3.46436 6.4709 3.46436C4.46994 3.46436 2.84781 5.08648 2.84781 7.08745C1.3434 7.08745 0.12381 8.30701 0.12381 9.81145C0.12381 11.3159 1.34337 12.5354 2.84781 12.5354H13.7974C14.9455 12.5354 15.8762 11.6048 15.8762 10.4567C15.8762 9.30864 14.9455 8.37798 13.7974 8.37798Z" fill="#E0E0E0"/>
</svg>
