<svg width="16" height="16" viewBox="0 0 16 16" fill="none" xmlns="http://www.w3.org/2000/svg">
<path d="M9.67906 5.20288H6.65834V14.265H9.67906V5.20288Z" fill="#E0E0E0"/>
<path d="M3.22169 4.1241C2.97864 4.1241 2.77742 3.93496 2.81661 3.70546C2.92106 3.09952 3.24753 2.54869 3.73782 2.15116C4.22812 1.75362 4.85037 1.53523 5.49364 1.53491C6.99067 1.53491 8.2059 2.6908 8.2059 4.1241H3.22169ZM8.2059 4.1241H13.1901C13.4332 4.1241 13.6339 3.93496 13.5952 3.70546C13.4912 3.09934 13.1648 2.54826 12.6744 2.15066C12.184 1.75305 11.5616 1.53481 10.9182 1.53491C9.42113 1.53491 8.2059 2.695 8.2059 4.1241Z" fill="#E0E0E0"/>
<path d="M7.75659 4.56852C7.97936 4.71038 8.27119 4.71038 8.49397 4.56852C9.13146 4.16281 9.88835 3.98689 10.6394 4.06987C11.3905 4.15286 12.0907 4.48977 12.6243 5.02486C13.1804 5.58268 13.5208 6.31968 13.5847 7.1048C13.6486 7.88992 13.4319 8.67226 12.9733 9.31267C12.7996 9.55433 12.4533 9.55217 12.2429 9.3418L8.50691 5.60581C8.40576 5.50469 8.26858 5.44788 8.12555 5.44788C7.98251 5.44788 7.84533 5.50469 7.74418 5.60581L4.00819 9.3418C3.79782 9.55217 3.45152 9.55433 3.27728 9.31267C2.81659 8.67298 2.59875 7.89014 2.6628 7.10443C2.72685 6.31871 3.06861 5.58149 3.62683 5.02486C4.16161 4.49209 4.86152 4.15677 5.61183 4.07386C6.36215 3.99095 7.11838 4.16536 7.75659 4.56852Z" fill="#E0E0E0"/>
<rect x="5.83241" y="4.12402" width="4.74685" height="0.863063" fill="#E0E0E0"/>
<path d="M7.73115 5.28916C7.73115 5.59817 7.6084 5.89453 7.38989 6.11303C7.17139 6.33154 6.87503 6.4543 6.56602 6.4543C6.257 6.4543 5.96064 6.33154 5.74214 6.11303C5.52363 5.89453 5.40088 5.59817 5.40088 5.28916C5.40088 4.98015 5.52363 4.68379 5.74214 4.46528C5.96064 4.24678 6.257 4.12402 6.56602 4.12402C6.87503 4.12402 7.17139 4.24678 7.38989 4.46528C7.6084 4.68379 7.73115 4.98015 7.73115 5.28916ZM10.8921 6.24392C10.8921 6.55294 10.7694 6.84929 10.5509 7.0678C10.3324 7.2863 10.036 7.40906 9.72699 7.40906C9.41797 7.40906 9.12162 7.2863 8.90311 7.0678C8.6846 6.84929 8.56185 6.55294 8.56185 6.24392C8.56185 5.93491 8.6846 5.63855 8.90311 5.42005C9.12162 5.20154 9.41797 5.07879 9.72699 5.07879C10.036 5.07879 10.3324 5.20154 10.5509 5.42005C10.7694 5.63855 10.8921 5.93491 10.8921 6.24392Z" fill="white"/>
</svg>
