<svg width="16" height="16" viewBox="0 0 16 16" fill="none" xmlns="http://www.w3.org/2000/svg">
<path fill-rule="evenodd" clip-rule="evenodd" d="M4.97001 2.30915C4.98753 2.1973 5.03325 2.09177 5.10285 2.00248C5.17245 1.9132 5.26364 1.84311 5.36782 1.79882C5.47201 1.75454 5.58575 1.73751 5.69834 1.74934C5.81093 1.76118 5.91864 1.80149 6.01134 1.86648L7.56934 2.95981C7.6832 3.03984 7.81925 3.08222 7.95841 3.08103C8.09757 3.07983 8.23287 3.03511 8.34534 2.95315L9.88267 1.83181C9.97415 1.76512 10.0811 1.72283 10.1934 1.70891C10.3058 1.695 10.4198 1.70992 10.5248 1.75227C10.6298 1.79463 10.7223 1.86302 10.7935 1.951C10.8648 2.03898 10.9124 2.14365 10.932 2.25515L11.26 4.12981C11.284 4.26699 11.3503 4.39322 11.4496 4.49079C11.549 4.58835 11.6764 4.65236 11.814 4.67381L13.694 4.96781C13.806 4.98528 13.9116 5.031 14.001 5.10064C14.0904 5.17028 14.1605 5.26155 14.2048 5.36584C14.2491 5.47012 14.2661 5.58398 14.2542 5.69665C14.2423 5.80933 14.2018 5.91711 14.1367 6.00981L13.0433 7.56715C12.9633 7.68101 12.9209 7.81705 12.9221 7.95622C12.9233 8.09538 12.968 8.23068 13.05 8.34315L14.172 9.88115C14.2387 9.97262 14.281 10.0796 14.2949 10.1919C14.3088 10.3043 14.2939 10.4183 14.2515 10.5233C14.2092 10.6283 14.1408 10.7207 14.0528 10.792C13.9648 10.8632 13.8602 10.9109 13.7487 10.9305L11.874 11.2585C11.7369 11.2824 11.6108 11.3486 11.5132 11.4478C11.4157 11.5471 11.3516 11.6743 11.33 11.8118L11.036 13.6925C11.0185 13.8044 10.9728 13.9101 10.9032 13.9995C10.8335 14.0888 10.7423 14.159 10.638 14.2033C10.5337 14.2476 10.4198 14.2646 10.3072 14.2527C10.1945 14.2407 10.0867 14.2003 9.99401 14.1351L8.43667 13.0418C8.32281 12.9618 8.18676 12.9194 8.0476 12.9206C7.90844 12.9218 7.77314 12.9665 7.66067 13.0485L6.12267 14.1705C6.03115 14.2372 5.92415 14.2795 5.81175 14.2933C5.69936 14.3072 5.58529 14.2922 5.48029 14.2498C5.37529 14.2074 5.28283 14.1389 5.21163 14.0508C5.14043 13.9628 5.09284 13.858 5.07334 13.7465L4.74534 11.8718C4.72142 11.7347 4.6552 11.6086 4.55597 11.511C4.45674 11.4135 4.32948 11.3494 4.19201 11.3278L2.31134 11.0345C2.19939 11.017 2.09374 10.9713 2.00436 10.9017C1.91499 10.832 1.84484 10.7407 1.80054 10.6365C1.75623 10.5322 1.73924 10.4183 1.75116 10.3056C1.76308 10.193 1.80353 10.0852 1.86867 9.99248L2.96201 8.43448C3.04203 8.32062 3.08441 8.18457 3.08322 8.04541C3.08202 7.90625 3.03731 7.77095 2.95534 7.65848L1.83334 6.12115C1.76665 6.02962 1.72436 5.92262 1.71049 5.81023C1.69661 5.69784 1.71159 5.58376 1.75401 5.47876C1.79644 5.37377 1.86491 5.28131 1.95297 5.21011C2.04104 5.13891 2.14579 5.09131 2.25734 5.07181L4.13201 4.74315C4.26897 4.7191 4.39498 4.65283 4.49241 4.55361C4.58983 4.45439 4.65379 4.32719 4.67534 4.18981L4.97001 2.30915ZM8.00001 11.3331C8.88406 11.3331 9.73191 10.982 10.357 10.3568C10.9821 9.73172 11.3333 8.88387 11.3333 7.99981C11.3333 7.11576 10.9821 6.26791 10.357 5.64279C9.73191 5.01767 8.88406 4.66648 8.00001 4.66648C7.11595 4.66648 6.2681 5.01767 5.64298 5.64279C5.01786 6.26791 4.66667 7.11576 4.66667 7.99981C4.66667 8.88387 5.01786 9.73172 5.64298 10.3568C6.2681 10.982 7.11595 11.3331 8.00001 11.3331Z" fill="#E0E0E0"/>
<path fill-rule="evenodd" clip-rule="evenodd" d="M10.4 8.0001C10.4 8.63662 10.1471 9.24707 9.69705 9.69715C9.24696 10.1472 8.63651 10.4001 7.99999 10.4001C7.36347 10.4001 6.75302 10.1472 6.30293 9.69715C5.85285 9.24707 5.59999 8.63662 5.59999 8.0001C5.59999 7.36358 5.85285 6.75313 6.30293 6.30304C6.75302 5.85295 7.36347 5.6001 7.99999 5.6001C8.63651 5.6001 9.24696 5.85295 9.69705 6.30304C10.1471 6.75313 10.4 7.36358 10.4 8.0001Z" fill="#E0E0E0"/>
</svg>
