<svg width="24" height="24" viewBox="0 0 24 24" fill="none" xmlns="http://www.w3.org/2000/svg">
<path d="M14.6313 6.8925C12.8767 8.69581 11.9994 10.827 11.9994 13.2861C11.9994 10.827 11.1222 8.69581 9.36758 6.8925C7.613 5.08919 5.42696 3.99628 2.80947 3.61376C2.6668 3.58753 2.53737 3.60119 2.42116 3.65474C2.30496 3.7083 2.1899 3.7766 2.076 3.85967C1.96209 3.94273 1.88328 4.04546 1.83956 4.16787C1.79584 4.29027 1.78836 4.41978 1.81712 4.5564C2.13467 6.716 3.06259 8.59472 4.60087 10.1926C6.13915 11.7904 8.7204 12.7669 10.964 13.1221V21.0001H13.0349V13.1221C15.2797 12.7658 17.8615 11.7888 19.3998 10.1909C20.938 8.59308 21.8654 6.71491 22.1818 4.5564C22.2117 4.41869 22.2048 4.28863 22.1611 4.16623C22.1173 4.04382 22.038 3.94163 21.9229 3.85967C21.8078 3.7777 21.6928 3.70939 21.5777 3.65474C21.4627 3.6001 21.3333 3.58644 21.1894 3.61376C18.5719 3.99628 16.3859 5.08919 14.6313 6.8925Z" fill="#3CAC5C"/>
</svg>
