<svg width="100" height="110" viewBox="0 0 100 110" fill="none" xmlns="http://www.w3.org/2000/svg">
<g clip-path="url(#clip0_9_98)">
<path d="M100 0H0V110H100V0Z" fill="#E7F5EA"/>
<path d="M44.25 51C43.4722 51 42.7917 50.7723 42.2083 50.3169C41.625 49.8615 41.2361 49.2721 41.0417 48.5488L39.1667 41.3558H60.8333L58.9583 48.5488C58.7639 49.2721 58.375 49.8615 57.7917 50.3169C57.2083 50.7723 56.5278 51 55.75 51H44.25ZM50 28.4969C50 26.0858 50.8472 23.9962 52.5417 22.2281C54.2361 20.46 56.3472 19.3884 58.875 19.0134C59.0139 18.9866 59.1389 19 59.25 19.0536C59.3611 19.1072 59.4722 19.1741 59.5833 19.2545C59.6944 19.3349 59.7711 19.4351 59.8133 19.5551C59.8556 19.6751 59.8622 19.8026 59.8333 19.9376C59.5278 22.054 58.6322 23.8955 57.1467 25.4622C55.6611 27.0288 53.4178 27.9868 51.25 28.3361V31.7116H63.3333C63.8055 31.7116 64.2017 31.8659 64.5217 32.1745C64.8417 32.4831 65.0011 32.8646 65 33.319V36.5337C65 37.4177 64.6739 38.1748 64.0217 38.8049C63.3694 39.435 62.5844 39.7495 61.6667 39.7484H38.3333C37.4167 39.7484 36.6322 39.4339 35.98 38.8049C35.3278 38.1759 35.0011 37.4188 35 36.5337V33.319C35 32.8635 35.16 32.4821 35.48 32.1745C35.8 31.867 36.1956 31.7127 36.6667 31.7116H48.75V28.3361C46.5833 27.9879 44.3406 27.0304 42.855 25.4638C41.3694 23.8971 40.4733 22.0551 40.1667 19.9376C40.1389 19.8037 40.1461 19.6767 40.1883 19.5567C40.2306 19.4367 40.3067 19.3359 40.4167 19.2545C40.5267 19.1731 40.6378 19.1061 40.75 19.0536C40.8622 19.0011 40.9872 18.9877 41.125 19.0134C43.6528 19.3884 45.7639 20.46 47.4583 22.2281C49.1528 23.9962 50 26.0858 50 28.4969Z" fill="white"/>
<path d="M44.25 51C43.4722 51 42.7917 50.7723 42.2083 50.3169C41.625 49.8615 41.2361 49.2721 41.0417 48.5488L39.1667 41.3558H60.8333L58.9583 48.5488C58.7639 49.2721 58.375 49.8615 57.7917 50.3169C57.2083 50.7723 56.5278 51 55.75 51H44.25ZM50 28.4969C50 26.0858 50.8472 23.9962 52.5417 22.2281C54.2361 20.46 56.3472 19.3884 58.875 19.0134C59.0139 18.9866 59.1389 19 59.25 19.0536C59.3611 19.1072 59.4722 19.1741 59.5833 19.2545C59.6944 19.3349 59.7711 19.4351 59.8133 19.5551C59.8556 19.6751 59.8622 19.8026 59.8333 19.9376C59.5278 22.054 58.6322 23.8955 57.1467 25.4622C55.6611 27.0288 53.4178 27.9868 51.25 28.3361V31.7116H63.3333C63.8055 31.7116 64.2017 31.8659 64.5217 32.1745C64.8417 32.4831 65.0011 32.8646 65 33.319V36.5337C65 37.4177 64.6739 38.1748 64.0217 38.8049C63.3694 39.435 62.5844 39.7495 61.6667 39.7484H38.3333C37.4167 39.7484 36.6322 39.4339 35.98 38.8049C35.3278 38.1759 35.0011 37.4188 35 36.5337V33.319C35 32.8635 35.16 32.4821 35.48 32.1745C35.8 31.867 36.1956 31.7127 36.6667 31.7116H48.75V28.3361C46.5833 27.9879 44.3406 27.0304 42.855 25.4638C41.3694 23.8971 40.4733 22.0551 40.1667 19.9376C40.1389 19.8037 40.1461 19.6767 40.1883 19.5567C40.2306 19.4367 40.3067 19.3359 40.4167 19.2545C40.5267 19.1731 40.6378 19.1061 40.75 19.0536C40.8622 19.0011 40.9872 18.9877 41.125 19.0134C43.6528 19.3884 45.7639 20.46 47.4583 22.2281C49.1528 23.9962 50 26.0858 50 28.4969Z" fill="url(#paint0_linear_9_98)"/>
<path fill-rule="evenodd" clip-rule="evenodd" d="M51 44.375C51 46.8614 51.9877 49.246 53.7459 51.0041C55.504 52.7623 57.8886 53.75 60.375 53.75C62.8614 53.75 65.246 52.7623 67.0041 51.0041C68.7623 49.246 69.75 46.8614 69.75 44.375C69.75 41.8886 68.7623 39.504 67.0041 37.7459C65.246 35.9877 62.8614 35 60.375 35C57.8886 35 55.504 35.9877 53.7459 37.7459C51.9877 39.504 51 41.8886 51 44.375Z" fill="#3CAC5C"/>
<path d="M62.8799 41.0812C63.2005 40.9351 63.5776 40.989 63.8438 41.2199L66.7256 43.7199C66.9224 43.8908 67.0351 44.139 67.0352 44.3996C67.0352 44.6602 66.9223 44.9084 66.7256 45.0793L63.8438 47.5793C63.5776 47.8102 63.2005 47.8642 62.8799 47.718C62.5595 47.5715 62.3535 47.2519 62.3535 46.8996V45.3H55.0898C54.5928 45.3 54.1895 44.8967 54.1895 44.3996C54.1896 43.9026 54.5929 43.4992 55.0898 43.4992H62.3535V41.8996C62.3536 41.5474 62.5596 41.2276 62.8799 41.0812Z" fill="white"/>
<path d="M36.3906 62.8086L39.1265 69.4863H39.2344L41.9702 62.8086H43.9951V72H42.4082V65.6714H42.3193L39.7739 71.9683H38.5869L36.0352 65.6587H35.959V72H34.3657V62.8086H36.3906ZM48.6479 72.1333C47.9878 72.1333 47.4059 71.9852 46.9023 71.689C46.403 71.3927 46.0179 70.9759 45.7471 70.4385C45.4762 69.901 45.3408 69.2811 45.3408 68.5786C45.3408 67.8677 45.4762 67.2456 45.7471 66.7124C46.0179 66.175 46.403 65.7581 46.9023 65.4619C47.4059 65.1657 47.9878 65.0176 48.6479 65.0176C49.3123 65.0176 49.8942 65.1657 50.3936 65.4619C50.8929 65.7581 51.2759 66.175 51.5425 66.7124C51.8091 67.2456 51.9424 67.8677 51.9424 68.5786C51.9424 69.2811 51.8091 69.901 51.5425 70.4385C51.2759 70.9759 50.8929 71.3927 50.3936 71.689C49.8942 71.9852 49.3123 72.1333 48.6479 72.1333ZM48.6606 70.8447C49.0161 70.8447 49.3166 70.7453 49.562 70.5464C49.8117 70.3433 49.9979 70.0703 50.1206 69.7275C50.2433 69.3848 50.3047 68.9997 50.3047 68.5723C50.3047 68.1406 50.2433 67.7534 50.1206 67.4106C49.9979 67.0679 49.8117 66.797 49.562 66.5981C49.3166 66.395 49.0161 66.2935 48.6606 66.2935C48.2967 66.2935 47.9878 66.395 47.7339 66.5981C47.48 66.797 47.2896 67.0679 47.1626 67.4106C47.0356 67.7534 46.9722 68.1406 46.9722 68.5723C46.9722 69.0039 47.0356 69.3911 47.1626 69.7339C47.2896 70.0724 47.48 70.3433 47.7339 70.5464C47.9878 70.7453 48.2967 70.8447 48.6606 70.8447ZM56.6587 72H54.8687L52.4185 65.1064H54.145L55.7319 70.2354H55.8081L57.395 65.1064H59.1216L56.6587 72ZM62.9492 72.1333C62.2679 72.1333 61.6755 71.9894 61.1719 71.7017C60.6683 71.4139 60.279 71.0034 60.0039 70.4702C59.7331 69.937 59.5977 69.3128 59.5977 68.5977C59.5977 67.891 59.7331 67.2668 60.0039 66.7251C60.279 66.1792 60.6619 65.7581 61.1528 65.4619C61.6437 65.1657 62.215 65.0176 62.8667 65.0176C63.4549 65.0176 63.986 65.1424 64.46 65.3921C64.9339 65.6418 65.3105 66.029 65.5898 66.5537C65.8691 67.0742 66.0088 67.7196 66.0088 68.4897V68.9976H60.3657V67.8994H64.46C64.46 67.5863 64.3944 67.307 64.2632 67.0615C64.132 66.8161 63.9458 66.6235 63.7046 66.4839C63.4676 66.3442 63.1947 66.2744 62.8857 66.2744C62.5557 66.2744 62.2637 66.3527 62.0098 66.5093C61.7559 66.6659 61.557 66.8774 61.4131 67.144C61.2734 67.4064 61.2015 67.6942 61.1973 68.0073V68.9468C61.1973 69.3488 61.2692 69.6958 61.4131 69.9878C61.5612 70.2756 61.7686 70.4956 62.0352 70.6479C62.3018 70.8003 62.6128 70.8765 62.9683 70.8765C63.1968 70.8765 63.402 70.8447 63.584 70.7812C63.7702 70.7178 63.9289 70.6353 64.0601 70.5337C64.1912 70.4279 64.2907 70.3031 64.3584 70.1592H65.9453C65.848 70.5527 65.6639 70.8997 65.3931 71.2002C65.1265 71.4964 64.7837 71.7271 64.3647 71.8921C63.9458 72.0529 63.474 72.1333 62.9492 72.1333Z" fill="#3CAC5C"/>
</g>
<defs>
<linearGradient id="paint0_linear_9_98" x1="50" y1="19" x2="50" y2="51" gradientUnits="userSpaceOnUse">
<stop stop-color="#3CAC5C"/>
<stop offset="0.395955" stop-color="#3CAC5C"/>
<stop offset="0.397525" stop-color="#ED4D85"/>
<stop offset="1" stop-color="#ED4D85"/>
</linearGradient>
<clipPath id="clip0_9_98">
<rect width="100" height="110" fill="white"/>
</clipPath>
</defs>
</svg>
