<svg width="100" height="110" viewBox="0 0 100 110" fill="none" xmlns="http://www.w3.org/2000/svg">
<g clip-path="url(#clip0_9_89)">
<path d="M100 0H0V110H100V0Z" fill="#E7F5EA"/>
<path d="M67.5 36C67.5 45.665 59.665 53.5 50 53.5C40.335 53.5 32.5 45.665 32.5 36C32.5 26.335 40.335 18.5 50 18.5C59.665 18.5 67.5 26.335 67.5 36Z" fill="#3CAC5C"/>
<path d="M58.3841 31.8836C58.6118 31.6478 58.7378 31.3321 58.7349 31.0043C58.7321 30.6766 58.6006 30.3631 58.3688 30.1313C58.1371 29.8995 57.8236 29.7681 57.4958 29.7652C57.1681 29.7624 56.8523 29.8884 56.6166 30.1161L48.1253 38.6073L44.0091 34.4911C43.7733 34.2634 43.4576 34.1374 43.1298 34.1402C42.8021 34.1431 42.4886 34.2745 42.2568 34.5063C42.025 34.7381 41.8936 35.0516 41.8907 35.3793C41.8879 35.7071 42.0139 36.0228 42.2416 36.2586L47.2416 41.2586C47.476 41.4929 47.7939 41.6246 48.1253 41.6246C48.4568 41.6246 48.7747 41.4929 49.0091 41.2586L58.3841 31.8836Z" fill="white"/>
<path d="M35.8447 74.5098V73.0752H38.0918C38.7393 73.0752 39.2746 72.9567 39.6978 72.7197C40.1252 72.4827 40.4468 72.1315 40.6626 71.666C40.8784 71.1963 40.9863 70.6102 40.9863 69.9077C40.9863 69.2052 40.8805 68.6213 40.6689 68.1558C40.4574 67.686 40.14 67.3348 39.7168 67.1021C39.2979 66.8693 38.7731 66.7529 38.1426 66.7529H35.7939V65.3184H38.2314C39.1413 65.3184 39.9263 65.5024 40.5864 65.8706C41.2466 66.2345 41.7523 66.7614 42.1035 67.4512C42.4548 68.141 42.6304 68.9598 42.6304 69.9077C42.6304 70.8599 42.4526 71.6808 42.0972 72.3706C41.7459 73.0604 41.236 73.5894 40.5674 73.9575C39.8988 74.3257 39.1011 74.5098 38.1743 74.5098H35.8447ZM36.7144 74.5098H35.064V65.3184H36.7144V74.5098ZM47.0483 74.6431C46.3882 74.6431 45.8063 74.495 45.3027 74.1987C44.8034 73.9025 44.4183 73.4857 44.1475 72.9482C43.8766 72.4108 43.7412 71.7909 43.7412 71.0884C43.7412 70.3774 43.8766 69.7554 44.1475 69.2222C44.4183 68.6847 44.8034 68.2679 45.3027 67.9717C45.8063 67.6755 46.3882 67.5273 47.0483 67.5273C47.7127 67.5273 48.2946 67.6755 48.7939 67.9717C49.2933 68.2679 49.6763 68.6847 49.9429 69.2222C50.2095 69.7554 50.3428 70.3774 50.3428 71.0884C50.3428 71.7909 50.2095 72.4108 49.9429 72.9482C49.6763 73.4857 49.2933 73.9025 48.7939 74.1987C48.2946 74.495 47.7127 74.6431 47.0483 74.6431ZM47.061 73.3545C47.4165 73.3545 47.717 73.255 47.9624 73.0562C48.2121 72.853 48.3983 72.5801 48.521 72.2373C48.6437 71.8945 48.7051 71.5094 48.7051 71.082C48.7051 70.6504 48.6437 70.2632 48.521 69.9204C48.3983 69.5776 48.2121 69.3068 47.9624 69.1079C47.717 68.9048 47.4165 68.8032 47.061 68.8032C46.6971 68.8032 46.3882 68.9048 46.1343 69.1079C45.8804 69.3068 45.6899 69.5776 45.563 69.9204C45.436 70.2632 45.3726 70.6504 45.3726 71.082C45.3726 71.5137 45.436 71.9009 45.563 72.2437C45.6899 72.5822 45.8804 72.853 46.1343 73.0562C46.3882 73.255 46.6971 73.3545 47.061 73.3545ZM53.2246 74.5098H51.6123V67.6162H53.1548V68.7842H53.231C53.4002 68.3864 53.6584 68.0775 54.0054 67.8574C54.3524 67.6374 54.7798 67.5273 55.2876 67.5273C55.7658 67.5273 56.1805 67.6289 56.5317 67.832C56.8872 68.0309 57.1602 68.325 57.3506 68.7144C57.5452 69.1037 57.6426 69.5713 57.6426 70.1172V74.5098H56.0303V70.3647C56.0303 70.0558 55.9774 69.7935 55.8716 69.5776C55.7658 69.3576 55.6134 69.1883 55.4146 69.0698C55.2157 68.9513 54.9723 68.8921 54.6846 68.8921C54.3968 68.8921 54.1429 68.9535 53.9229 69.0762C53.7028 69.1989 53.5314 69.3787 53.4087 69.6157C53.286 69.8527 53.2246 70.1362 53.2246 70.4663V74.5098ZM62.251 74.6431C61.5697 74.6431 60.9772 74.4992 60.4736 74.2114C59.9701 73.9237 59.5807 73.5132 59.3057 72.98C59.0348 72.4468 58.8994 71.8226 58.8994 71.1074C58.8994 70.4007 59.0348 69.7765 59.3057 69.2349C59.5807 68.689 59.9637 68.2679 60.4546 67.9717C60.9455 67.6755 61.5168 67.5273 62.1685 67.5273C62.7567 67.5273 63.2878 67.6522 63.7617 67.9019C64.2357 68.1515 64.6123 68.5387 64.8916 69.0635C65.1709 69.584 65.3105 70.2293 65.3105 70.9995V71.5073H59.6675V70.4092H63.7617C63.7617 70.096 63.6961 69.8167 63.5649 69.5713C63.4338 69.3258 63.2476 69.1333 63.0063 68.9937C62.7694 68.854 62.4964 68.7842 62.1875 68.7842C61.8574 68.7842 61.5654 68.8625 61.3115 69.019C61.0576 69.1756 60.8587 69.3872 60.7148 69.6538C60.5752 69.9162 60.5033 70.2039 60.499 70.5171V71.4565C60.499 71.8586 60.571 72.2056 60.7148 72.4976C60.863 72.7853 61.0703 73.0054 61.3369 73.1577C61.6035 73.3101 61.9146 73.3862 62.27 73.3862C62.4985 73.3862 62.7038 73.3545 62.8857 73.291C63.0719 73.2275 63.2306 73.145 63.3618 73.0435C63.493 72.9377 63.5924 72.8128 63.6602 72.6689H65.2471C65.1497 73.0625 64.9657 73.4095 64.6948 73.71C64.4282 74.0062 64.0854 74.2368 63.6665 74.4019C63.2476 74.5627 62.7757 74.6431 62.251 74.6431Z" fill="#3CAC5C"/>
</g>
<defs>
<clipPath id="clip0_9_89">
<rect width="100" height="110" fill="white"/>
</clipPath>
</defs>
</svg>
