<svg width="38" height="38" viewBox="0 0 38 38" fill="none" xmlns="http://www.w3.org/2000/svg">
<path d="M13.5375 34.2001C12.7986 34.2001 12.1521 33.9837 11.5979 33.5511C11.0437 33.1184 10.6743 32.5585 10.4896 31.8714L8.70833 25.0381H29.2917L27.5104 31.8714C27.3257 32.5585 26.9562 33.1184 26.4021 33.5511C25.8479 33.9837 25.2014 34.2001 24.4625 34.2001H13.5375ZM19 12.8221C19 10.5316 19.8049 8.54647 21.4146 6.86677C23.0243 5.18707 25.0299 4.16907 27.4312 3.81277C27.5632 3.78732 27.6819 3.80005 27.7875 3.85095C27.893 3.90185 27.9986 3.96547 28.1042 4.04182C28.2097 4.11817 28.2826 4.21336 28.3227 4.32737C28.3628 4.44139 28.3691 4.56253 28.3417 4.6908C28.0514 6.70135 27.2006 8.45078 25.7893 9.93909C24.3781 11.4274 22.0094 12.3375 19.95 12.6694V15.8761H31.6667C32.1153 15.8761 32.4916 16.0227 32.7956 16.3158C33.0996 16.609 33.251 16.9714 33.25 17.4031V20.4571C33.25 21.2969 32.9402 22.0161 32.3206 22.6147C31.701 23.2133 30.9552 23.5121 30.0833 23.5111H7.91667C7.04583 23.5111 6.30061 23.2123 5.681 22.6147C5.06139 22.0171 4.75106 21.2979 4.75 20.4571V17.4031C4.75 16.9704 4.902 16.608 5.206 16.3158C5.51 16.0237 5.88578 15.8771 6.33333 15.8761H18.05V12.6694C15.9917 12.3385 13.6235 11.4289 12.2122 9.94062C10.801 8.45231 9.94967 6.70236 9.65833 4.6908C9.63194 4.56355 9.6388 4.44292 9.67892 4.3289C9.71903 4.21488 9.79133 4.11919 9.89583 4.04182C10.0003 3.96446 10.1059 3.90083 10.2125 3.85095C10.3191 3.80107 10.4379 3.78834 10.5687 3.81277C12.9701 4.16907 14.9757 5.18707 16.5854 6.86677C18.1951 8.54647 19 10.5316 19 12.8221Z" fill="white"/>
<path d="M11.5979 33.5511C12.1521 33.9837 12.7986 34.2001 13.5375 34.2001H24.4625C25.2014 34.2001 25.8479 33.9837 26.4021 33.5511C26.9562 33.1184 27.3257 32.5585 27.5104 31.8714L29.2917 25.0381H8.70833L10.4896 31.8714C10.6743 32.5585 11.0437 33.1184 11.5979 33.5511Z" fill="white"/>
</svg>
