<svg width="100" height="110" viewBox="0 0 100 110" fill="none" xmlns="http://www.w3.org/2000/svg">
<g clip-path="url(#clip0_9_133)">
<path d="M100 0H0V110H100V0Z" fill="#FCE5EE"/>
<path d="M61.5596 27C61.967 27.0009 62.3086 27.1355 62.585 27.4033C62.8623 27.6721 63.001 28.0047 63 28.4004V31.2002C63 31.97 62.7173 32.6291 62.1523 33.1777C61.8464 33.4748 61.5052 33.6882 61.1318 33.8242L60.1123 46.5C60.1124 47.6477 59.6899 48.7518 58.9316 49.5869C58.1734 50.4219 57.1366 50.9247 56.0332 50.9922L55.7783 51H44.2217C41.9132 51 40.0265 49.1265 39.8994 46.875L39.8916 46.624L38.8643 33.8223C38.493 33.6861 38.1543 33.473 37.8496 33.1777C37.2845 32.6299 37.001 31.971 37 31.2002V28.4004C37 28.0037 37.1387 27.6712 37.416 27.4033C37.6924 27.1363 38.0339 27.0018 38.4404 27H61.5596ZM52.8896 21C53.6558 21.0001 54.3909 21.3164 54.9326 21.8789C55.4743 22.4415 55.7783 23.2045 55.7783 24C55.7779 24.3823 55.7783 24.7502 55.7783 25.2002H52.8994C52.8994 24.9045 52.8893 24.6042 52.8994 24.1758L52.8896 24H47.1104L47.1006 24.1758V25.2002H44.2217C44.2217 24.8779 44.2221 24.3823 44.2217 24C44.2214 23.2431 44.4966 22.514 44.9922 21.959C45.4878 21.4041 46.1677 21.0646 46.8945 21.0078L47.1104 21H52.8896Z" fill="#ED4D85"/>
<path d="M46 35V45" stroke="white" stroke-width="1.8" stroke-linecap="round" stroke-linejoin="round"/>
<path d="M54 35V45" stroke="white" stroke-width="1.8" stroke-linecap="round" stroke-linejoin="round"/>
<path d="M32.1567 72V70.5654H34.4038C35.0513 70.5654 35.5866 70.4469 36.0098 70.21C36.4372 69.973 36.7588 69.6217 36.9746 69.1562C37.1904 68.6865 37.2983 68.1004 37.2983 67.3979C37.2983 66.6955 37.1925 66.1115 36.981 65.646C36.7694 65.1763 36.452 64.825 36.0288 64.5923C35.6099 64.3595 35.0851 64.2432 34.4546 64.2432H32.106V62.8086H34.5435C35.4533 62.8086 36.2383 62.9927 36.8984 63.3608C37.5586 63.7248 38.0643 64.2516 38.4155 64.9414C38.7668 65.6312 38.9424 66.45 38.9424 67.3979C38.9424 68.3501 38.7646 69.1711 38.4092 69.8608C38.0579 70.5506 37.548 71.0796 36.8794 71.4478C36.2108 71.8159 35.4131 72 34.4863 72H32.1567ZM33.0264 72H31.376V62.8086H33.0264V72ZM43.4048 72.1333C42.7235 72.1333 42.131 71.9894 41.6274 71.7017C41.1239 71.4139 40.7345 71.0034 40.4595 70.4702C40.1886 69.937 40.0532 69.3128 40.0532 68.5977C40.0532 67.891 40.1886 67.2668 40.4595 66.7251C40.7345 66.1792 41.1175 65.7581 41.6084 65.4619C42.0993 65.1657 42.6706 65.0176 43.3223 65.0176C43.9105 65.0176 44.4416 65.1424 44.9155 65.3921C45.3895 65.6418 45.7661 66.029 46.0454 66.5537C46.3247 67.0742 46.4644 67.7196 46.4644 68.4897V68.9976H40.8213V67.8994H44.9155C44.9155 67.5863 44.8499 67.307 44.7188 67.0615C44.5876 66.8161 44.4014 66.6235 44.1602 66.4839C43.9232 66.3442 43.6502 66.2744 43.3413 66.2744C43.0112 66.2744 42.7192 66.3527 42.4653 66.5093C42.2114 66.6659 42.0125 66.8774 41.8687 67.144C41.729 67.4064 41.6571 67.6942 41.6528 68.0073V68.9468C41.6528 69.3488 41.7248 69.6958 41.8687 69.9878C42.0168 70.2756 42.2241 70.4956 42.4907 70.6479C42.7573 70.8003 43.0684 70.8765 43.4238 70.8765C43.6523 70.8765 43.8576 70.8447 44.0396 70.7812C44.2257 70.7178 44.3844 70.6353 44.5156 70.5337C44.6468 70.4279 44.7463 70.3031 44.814 70.1592H46.4009C46.3035 70.5527 46.1195 70.8997 45.8486 71.2002C45.582 71.4964 45.2393 71.7271 44.8203 71.8921C44.4014 72.0529 43.9295 72.1333 43.4048 72.1333ZM49.3462 72H47.7339V62.8086H49.3462V72ZM53.9546 72.1333C53.2733 72.1333 52.6808 71.9894 52.1772 71.7017C51.6737 71.4139 51.2843 71.0034 51.0093 70.4702C50.7384 69.937 50.603 69.3128 50.603 68.5977C50.603 67.891 50.7384 67.2668 51.0093 66.7251C51.2843 66.1792 51.6673 65.7581 52.1582 65.4619C52.6491 65.1657 53.2204 65.0176 53.8721 65.0176C54.4603 65.0176 54.9914 65.1424 55.4653 65.3921C55.9393 65.6418 56.3159 66.029 56.5952 66.5537C56.8745 67.0742 57.0142 67.7196 57.0142 68.4897V68.9976H51.3711V67.8994H55.4653C55.4653 67.5863 55.3997 67.307 55.2686 67.0615C55.1374 66.8161 54.9512 66.6235 54.71 66.4839C54.473 66.3442 54.2 66.2744 53.8911 66.2744C53.561 66.2744 53.269 66.3527 53.0151 66.5093C52.7612 66.6659 52.5623 66.8774 52.4185 67.144C52.2788 67.4064 52.2069 67.6942 52.2026 68.0073V68.9468C52.2026 69.3488 52.2746 69.6958 52.4185 69.9878C52.5666 70.2756 52.7739 70.4956 53.0405 70.6479C53.3071 70.8003 53.6182 70.8765 53.9736 70.8765C54.2021 70.8765 54.4074 70.8447 54.5894 70.7812C54.7756 70.7178 54.9342 70.6353 55.0654 70.5337C55.1966 70.4279 55.2961 70.3031 55.3638 70.1592H56.9507C56.8534 70.5527 56.6693 70.8997 56.3984 71.2002C56.1318 71.4964 55.7891 71.7271 55.3701 71.8921C54.9512 72.0529 54.4793 72.1333 53.9546 72.1333ZM61.7051 66.3506H57.7568V65.1064H61.7051V66.3506ZM60.353 63.4561V69.9307C60.353 70.138 60.3848 70.3009 60.4482 70.4194C60.5117 70.5337 60.5964 70.6141 60.7021 70.6606C60.8122 70.703 60.9434 70.7262 61.0957 70.7305C61.2819 70.7347 61.5168 70.7241 61.8003 70.6987V72.0254C61.5379 72.0719 61.2332 72.0952 60.8862 72.0952C60.4715 72.0952 60.1012 72.0254 59.7754 71.8857C59.4495 71.7419 59.1935 71.5282 59.0073 71.2446C58.8211 70.9611 58.7301 70.6099 58.7344 70.1909V63.4561H60.353ZM65.939 72.1333C65.2576 72.1333 64.6652 71.9894 64.1616 71.7017C63.658 71.4139 63.2687 71.0034 62.9937 70.4702C62.7228 69.937 62.5874 69.3128 62.5874 68.5977C62.5874 67.891 62.7228 67.2668 62.9937 66.7251C63.2687 66.1792 63.6517 65.7581 64.1426 65.4619C64.6335 65.1657 65.2048 65.0176 65.8564 65.0176C66.4447 65.0176 66.9757 65.1424 67.4497 65.3921C67.9237 65.6418 68.3003 66.029 68.5796 66.5537C68.8589 67.0742 68.9985 67.7196 68.9985 68.4897V68.9976H63.3555V67.8994H67.4497C67.4497 67.5863 67.3841 67.307 67.2529 67.0615C67.1217 66.8161 66.9355 66.6235 66.6943 66.4839C66.4574 66.3442 66.1844 66.2744 65.8755 66.2744C65.5454 66.2744 65.2534 66.3527 64.9995 66.5093C64.7456 66.6659 64.5467 66.8774 64.4028 67.144C64.2632 67.4064 64.1912 67.6942 64.187 68.0073V68.9468C64.187 69.3488 64.259 69.6958 64.4028 69.9878C64.5509 70.2756 64.7583 70.4956 65.0249 70.6479C65.2915 70.8003 65.6025 70.8765 65.958 70.8765C66.1865 70.8765 66.3918 70.8447 66.5737 70.7812C66.7599 70.7178 66.9186 70.6353 67.0498 70.5337C67.181 70.4279 67.2804 70.3031 67.3481 70.1592H68.9351C68.8377 70.5527 68.6536 70.8997 68.3828 71.2002C68.1162 71.4964 67.7734 71.7271 67.3545 71.8921C66.9355 72.0529 66.4637 72.1333 65.939 72.1333Z" fill="#F06B9C"/>
</g>
<defs>
<clipPath id="clip0_9_133">
<rect width="100" height="110" fill="white"/>
</clipPath>
</defs>
</svg>
