<svg width="24" height="24" viewBox="0 0 24 24" fill="none" xmlns="http://www.w3.org/2000/svg">
<path d="M20.6962 12.5672C20.4379 12.5672 20.1871 12.5992 19.9471 12.6584C20.002 12.4203 20.0298 12.1767 20.0299 11.9323C20.0299 10.1453 18.5813 8.69665 16.7942 8.69665C16.1419 8.69574 15.5047 8.89296 14.9669 9.2622C14.3599 6.92356 12.2348 5.19678 9.70636 5.19678C6.70491 5.19678 4.27172 7.62996 4.27172 10.6314C2.01511 10.6314 0.185719 12.4608 0.185719 14.7174C0.185719 16.974 2.01506 18.8034 4.27172 18.8034H20.6962C22.4183 18.8034 23.8143 17.4074 23.8143 15.6853C23.8143 13.9632 22.4183 12.5672 20.6962 12.5672Z" fill="#3CAC5C"/>
</svg>
