<svg width="56" height="16" viewBox="0 0 56 16" fill="none" xmlns="http://www.w3.org/2000/svg">
<path d="M9.75421 4.59484C8.58449 5.79705 7.99963 7.21784 7.99963 8.85721C7.99963 7.21784 7.41477 5.79705 6.24505 4.59484C5.07533 3.39263 3.61797 2.66402 1.87298 2.40901C1.77786 2.39152 1.69157 2.40063 1.6141 2.43633C1.53663 2.47203 1.45993 2.51757 1.38399 2.57295C1.30806 2.62832 1.25552 2.69681 1.22637 2.77842C1.19722 2.86002 1.19224 2.94636 1.21141 3.03744C1.42311 4.47717 2.04172 5.72965 3.06724 6.79488C4.09276 7.86011 5.81359 8.51112 7.3093 8.74792V13.9999H8.68996V8.74792C10.1864 8.51039 11.9076 7.85901 12.9332 6.79379C13.9587 5.72856 14.5769 4.47644 14.7878 3.03744C14.8078 2.94563 14.8032 2.85893 14.774 2.77732C14.7449 2.69572 14.692 2.62759 14.6153 2.57295C14.5386 2.5183 14.4619 2.47276 14.3852 2.43633C14.3084 2.3999 14.2222 2.39079 14.1263 2.40901C12.3813 2.66402 10.9239 3.39263 9.75421 4.59484Z" fill="#3CAC5C"/>
<circle cx="27.5" cy="8.5" r="3.5" fill="#E0E0E0"/>
<circle cx="47.5" cy="8.5" r="3.5" fill="#E0E0E0"/>
</svg>
